<svg class="animated" id="freepik_stories-cat-astronaut" xmlns="http://www.w3.org/2000/svg" xmlns:xlink="http://www.w3.org/1999/xlink" viewBox="0 0 500 500" version="1.1" xmlns:svgjs="http://svgjs.com/svgjs"><style>svg#freepik_stories-cat-astronaut:not(.animated) .animable {opacity: 0;}svg#freepik_stories-cat-astronaut.animated #freepik--background-simple--inject-17 {animation: 1.5s Infinite  linear shake;animation-delay: 0s;}svg#freepik_stories-cat-astronaut.animated #freepik--Rocks--inject-17 {animation: 3s Infinite  linear floating;animation-delay: 0s;}svg#freepik_stories-cat-astronaut.animated #freepik--planet-2--inject-17 {animation: 3s Infinite  linear floating;animation-delay: 0s;}svg#freepik_stories-cat-astronaut.animated #freepik--planet-1--inject-17 {animation: 3s Infinite  linear floating;animation-delay: 0s;}svg#freepik_stories-cat-astronaut.animated #freepik--Cat--inject-17 {animation: 3s Infinite  linear floating;animation-delay: 0s;}            @keyframes shake {                10%, 90% {                    transform: translate3d(-1px, 0, 0);                  }                  20%, 80% {                    transform: translate3d(2px, 0, 0);                  }                  30%, 50%, 70% {                    transform: translate3d(-4px, 0, 0);                  }                  40%, 60% {                    transform: translate3d(4px, 0, 0);                  }            }                    @keyframes floating {                0% {                    opacity: 1;                    transform: translateY(0px);                }                50% {                    transform: translateY(-10px);                }                100% {                    opacity: 1;                    transform: translateY(0px);                }            }        .animator-hidden { display: none; }</style><g id="freepik--background-simple--inject-17" class="animable animator-hidden" style="transform-origin: 253.973px 252.168px;"><path d="M430.52,39.82l-1.61-1c-13.59-8.32-30.63-8.76-44.17-.65a40.91,40.91,0,0,0-5,3.5A44.81,44.81,0,0,0,364.09,81c1,8.64,4.59,17.38,2.44,25.78-2.81,10.93-14,17-24.12,21.83s-21.31,10.93-24.06,21.87c-1.73,6.86.41,14.23,4,20.37,9.51,16.24,28.84,25.17,47.47,24.95s36.39-8.53,50.9-20.15c20.33-16.28,35.42-40,38.38-66S451.7,55.41,430.52,39.82Z" style="fill: rgb(245, 245, 245); transform-origin: 388.668px 114.065px;" id="elf0xpd2i549v" class="animable"></path><circle cx="83.06" cy="437.3" r="34.71" style="fill: rgb(245, 245, 245); transform-origin: 83.06px 437.3px;" id="el3kgk83o5uqn" class="animable"></circle></g><g id="freepik--Rocks--inject-17" class="animable animator-active" style="transform-origin: 241.244px 262.315px;"><path d="M268.33,59s1.75,4.79-.92,11.18-3.93,10.44-8,10.92a100.92,100.92,0,0,1-11.18.24l-.35-11.63Z" style="fill: rgb(174, 116, 97); transform-origin: 258.387px 70.1991px;" id="elhyptc17tqpi" class="animable"></path><g id="elbtyxoxt2k3h"><g style="opacity: 0.3; transform-origin: 258.387px 70.1991px;" class="animable"><path d="M268.33,59s1.75,4.79-.92,11.18-3.93,10.44-8,10.92a100.92,100.92,0,0,1-11.18.24l-.35-11.63Z" id="elm4yka5no25i" class="animable" style="transform-origin: 258.387px 70.1991px;"></path></g></g><path d="M240.5,61s5.47,7.85,7,9l.87,1.16c1.2-.47,13.85-4.31,14.49-5.37a2.53,2.53,0,0,0,.22-2.09l1.94.66L268.33,59,254,60.69l-9.89-2Z" style="fill: rgb(174, 116, 97); transform-origin: 254.415px 64.925px;" id="elcfsc98s9fq5" class="animable"></path><path d="M248.22,81.29a34,34,0,0,1-4.14-8.52C242.23,67.34,240.5,61,240.5,61l7.85,10.19Z" style="fill: rgb(111, 68, 57); transform-origin: 244.425px 71.145px;" id="elsbzr5uu1l4" class="animable"></path><g id="elacbczrga9h"><g style="opacity: 0.3; transform-origin: 263.92px 68.11px;" class="animable"><path d="M262.84,65.86l.63,6.58,1.53-8-1.94-.66A3,3,0,0,1,262.84,65.86Z" id="el28t3mqkkfin" class="animable" style="transform-origin: 263.92px 68.11px;"></path></g></g><polygon points="357.76 465.94 353.57 446.55 382.83 440.87 392.35 417.7 386.81 446.86 376.36 462.52 357.76 465.94" style="fill: rgb(111, 68, 57); transform-origin: 372.96px 441.82px;" id="el9t9is2fbzx5" class="animable"></polygon><polygon points="335.35 428.3 338.38 446.53 357.76 465.94 353.57 446.55 335.35 428.3" style="fill: rgb(174, 116, 97); transform-origin: 346.555px 447.12px;" id="elhh4dnb6b7mk" class="animable"></polygon><g id="elws4olc28mti"><g style="opacity: 0.3; transform-origin: 346.555px 447.12px;" class="animable"><polygon points="335.35 428.3 338.38 446.53 357.76 465.94 353.57 446.55 335.35 428.3" id="elvakesl8hfh" class="animable" style="transform-origin: 346.555px 447.12px;"></polygon></g></g><path d="M341.06,415c-1.52,2.28-5.71,13.3-5.71,13.3l18.22,18.24,29.26-5.67,9.52-23.17c-1-2.37-8.53-11.59-8.53-11.59Z" style="fill: rgb(174, 116, 97); transform-origin: 363.85px 426.325px;" id="elcfxsg9uwr57" class="animable"></path><path d="M441.5,197l6.65-1.84a1,1,0,0,0,.71-1.34l-1.38-4a1,1,0,0,0-.11-.23L441,179.69a1,1,0,0,0-1.47-.28l-7.06,4.93a1,1,0,0,0-.41,1.11l1.44,5.63a1,1,0,0,0,.38.56l6.72,5.14A1,1,0,0,0,441.5,197Z" style="fill: rgb(111, 68, 57); transform-origin: 440.475px 188.115px;" id="el1n4u5cw26fc" class="animable"></path><path d="M433.3,185.57l8.83,5.06a1.06,1.06,0,0,0,.76.11L446,190a1,1,0,0,0,.63-1.58L441,179.69a1,1,0,0,0-1.47-.28l-6.3,4.41A1,1,0,0,0,433.3,185.57Z" style="fill: rgb(174, 116, 97); transform-origin: 439.787px 184.984px;" id="el4v9122nlp2f" class="animable"></path><g id="elzzcw89su9k"><g style="opacity: 0.3; transform-origin: 445.147px 193.255px;" class="animable"><path d="M441.41,195.38l.93-3.92a1,1,0,0,1,.77-.77l3.41-.82a1,1,0,0,1,1.23.67l1.11,3.24a1,1,0,0,1-.71,1.34l-5.45,1.5A1,1,0,0,1,441.41,195.38Z" style="fill-rule: evenodd; transform-origin: 445.147px 193.255px;" id="elic0q8t2hr2" class="animable"></path></g></g><path d="M147.71,463l6.65-1.84a1,1,0,0,0,.71-1.34l-1.38-4a1.63,1.63,0,0,0-.11-.23l-6.37-9.84a1,1,0,0,0-1.47-.29l-7.06,4.94a1,1,0,0,0-.41,1.1l1.44,5.63a1,1,0,0,0,.38.57l6.71,5.13A1,1,0,0,0,147.71,463Z" style="fill: rgb(111, 68, 57); transform-origin: 146.686px 454.149px;" id="elbo4g5660h99" class="animable"></path><path d="M139.51,451.62l8.83,5.06a1,1,0,0,0,.76.11l3.12-.75a1,1,0,0,0,.63-1.57l-5.64-8.72a1,1,0,0,0-1.47-.29l-6.31,4.41A1,1,0,0,0,139.51,451.62Z" style="fill: rgb(174, 116, 97); transform-origin: 145.996px 451.038px;" id="el4b1g6r9tq1f" class="animable"></path><g id="elfhd4qqikq2e"><g style="opacity: 0.3; transform-origin: 151.357px 459.311px;" class="animable"><path d="M147.62,461.44l.93-3.93a1,1,0,0,1,.77-.77l3.41-.82a1,1,0,0,1,1.22.67l1.12,3.24a1,1,0,0,1-.71,1.34l-5.45,1.51A1,1,0,0,1,147.62,461.44Z" style="fill-rule: evenodd; transform-origin: 151.357px 459.311px;" id="eld9jivgis02o" class="animable"></path></g></g><path d="M43,319.51l6.65-1.84a1,1,0,0,0,.71-1.34l-1.38-4a1,1,0,0,0-.11-.23l-6.37-9.84a1,1,0,0,0-1.47-.29L34,306.89A1,1,0,0,0,33.6,308L35,313.63a1,1,0,0,0,.38.56l6.71,5.14A1.06,1.06,0,0,0,43,319.51Z" style="fill: rgb(111, 68, 57); transform-origin: 41.9943px 310.655px;" id="el2708q7w1gji" class="animable"></path><path d="M34.84,308.12l8.83,5.06a1.06,1.06,0,0,0,.76.11l3.12-.75a1,1,0,0,0,.63-1.57l-5.64-8.72a1,1,0,0,0-1.47-.29l-6.31,4.41A1,1,0,0,0,34.84,308.12Z" style="fill: rgb(174, 116, 97); transform-origin: 41.3259px 307.536px;" id="ela93utm3knjf" class="animable"></path><g id="elufbcz7relh"><g style="opacity: 0.3; transform-origin: 46.7367px 315.81px;" class="animable"><path d="M43,317.94l.93-3.93a1,1,0,0,1,.77-.77l3.41-.82a1,1,0,0,1,1.23.67l1.11,3.24a1,1,0,0,1-.71,1.34l-5.45,1.51A1,1,0,0,1,43,317.94Z" style="fill-rule: evenodd; transform-origin: 46.7367px 315.81px;" id="eldfjrs28gm25" class="animable"></path></g></g><polygon points="312.35 102.56 312.39 98.53 306.87 94.54 303.94 100.43 305.53 105.09 308.79 105.19 312.35 102.56" style="fill: rgb(111, 68, 57); transform-origin: 308.165px 99.865px;" id="el5q7br0pulc2" class="animable"></polygon><polygon points="305.53 105.09 309.69 101.06 306.87 94.54 303.94 100.43 305.53 105.09" style="fill: rgb(174, 116, 97); transform-origin: 306.815px 99.815px;" id="el3xq7nia2nsd" class="animable"></polygon><g id="els17zsruxd1r"><g style="opacity: 0.3; transform-origin: 309.63px 98.55px;" class="animable"><polygon points="312.35 102.56 309.69 101.06 306.87 94.54 312.39 98.53 312.35 102.56" style="fill-rule: evenodd; transform-origin: 309.63px 98.55px;" id="elt3kc9pp1p0b" class="animable"></polygon></g></g><path d="M71.16,251.81l-21.15,3L48.74,257s-8.35,1.31-9.08,1.56l-2.42,12.1,13.63,1.78,13.5-11.21Z" style="fill: rgb(111, 68, 57); transform-origin: 54.2px 262.125px;" id="elye82jmlcks" class="animable"></path><path d="M37.24,270.68c.38.25,5.22,8.4,13,12.22a76,76,0,0,0,13.15,5.2L45.85,269.87Z" style="fill: rgb(111, 68, 57); transform-origin: 50.315px 278.985px;" id="el30f94f4ifgq" class="animable"></path><polygon points="64.79 253.05 62.49 257.65 51.34 258.54 49.92 264.56 45.85 269.87 63.38 288.1 71.16 276.24 71.16 251.81 64.79 253.05" style="fill: rgb(174, 116, 97); transform-origin: 58.505px 269.955px;" id="elolwblqgqb98" class="animable"></polygon><g id="elei6r9ondoat"><g style="opacity: 0.3; transform-origin: 44.29px 264.61px;" class="animable"><polygon points="51.34 258.54 39.66 258.58 37.24 270.68 45.85 269.87 49.92 264.56 51.34 258.54" id="el5a85n6viil6" class="animable" style="transform-origin: 44.29px 264.61px;"></polygon></g></g></g><g id="freepik--planet-2--inject-17" class="animable" style="transform-origin: 440.715px 386.386px;"><path d="M458.86,397.3a21.21,21.21,0,1,1-7.24-29.11A21.22,21.22,0,0,1,458.86,397.3Z" style="fill: rgb(69, 90, 100); transform-origin: 440.684px 386.365px;" id="elbxfz5bdh62w" class="animable"></path><g id="el50tldl9pj15"><g style="opacity: 0.3; transform-origin: 432.35px 369.214px;" class="animable"><path d="M438.87,365.18c.09.41.17.78.24,1.05a4.29,4.29,0,0,0-2.86,1.29c-.65.87-.53,2.07-.8,3.12a1.07,1.07,0,0,1-.51.79,1.25,1.25,0,0,1-.79,0c-1.53-.34-3.3-.84-4.54.13-.72.56-1.18,1.57-2.09,1.68s-1.64-.86-1.93-1.8A21.24,21.24,0,0,1,438.87,365.18Z" id="el8qtyuufscs3" class="animable" style="transform-origin: 432.35px 369.214px;"></path></g></g><g id="elj65ebu5r9y"><g style="opacity: 0.3; transform-origin: 431.493px 373.857px;" class="animable"><path d="M430.3,375.86a.33.33,0,0,1-.14,0c-1.92-.95.76-4.26,2.35-4a1.24,1.24,0,0,1,.7,2c-.63,1-2,1.07-2.75,1.88C430.41,375.79,430.36,375.85,430.3,375.86Z" id="elhqxghx379ls" class="animable" style="transform-origin: 431.493px 373.857px;"></path></g></g><g id="eln5pliuu6nxo"><g style="opacity: 0.3; transform-origin: 425.988px 376.718px;" class="animable"><path d="M425,378.78c-.26.09-.54-.12-.71-.35a2.41,2.41,0,0,1-.08-2.74c.93-1.4,3.56-1.55,3.92.42a1.56,1.56,0,0,1-.95,1.72c-.37.13-.78.09-1.15.23a2.82,2.82,0,0,0-.77.56A.71.71,0,0,1,425,378.78Z" id="elm57xkq81ju" class="animable" style="transform-origin: 425.988px 376.718px;"></path></g></g><g id="elcgwjg9fyb8s"><g style="opacity: 0.3; transform-origin: 424.34px 383.691px;" class="animable"><path d="M425,384.89c-.29,0-.57-.24-.84-.13s-.31.43-.56.46-.37-.23-.43-.44a2.9,2.9,0,0,1,.27-2.1.75.75,0,0,1,.24-.29,1.8,1.8,0,0,1,.86-.23,1.09,1.09,0,0,1,.89.67,2.33,2.33,0,0,1,.15,1.14C425.58,384.37,425.42,384.87,425,384.89Z" id="elu8t7k7b6gd" class="animable" style="transform-origin: 424.34px 383.691px;"></path></g></g><g id="elf96r52tqirb"><g style="opacity: 0.3; transform-origin: 429.401px 383.585px;" class="animable"><path d="M427.56,381.8c1.14-.9,2.87.11,3.58,1.08.55.76.95,3-.7,2.83a1.93,1.93,0,0,1-1.36-.87,3.85,3.85,0,0,0-.62-1l-.07-.06c-.32-.23-.77-.29-1-.59A1,1,0,0,1,427.56,381.8Z" id="el75ngq2tth39" class="animable" style="transform-origin: 429.401px 383.585px;"></path></g></g><g id="el77vkjzp7iwg"><g style="opacity: 0.3; transform-origin: 427.199px 385.184px;" class="animable"><path d="M427.81,385.35a.62.62,0,0,1-.18.51.55.55,0,0,1-.43.1.79.79,0,0,1,.2-1.56A1.42,1.42,0,0,1,427.81,385.35Z" id="elyw5qrbplhsi" class="animable" style="transform-origin: 427.199px 385.184px;"></path></g></g><g id="el96dcf4l16lw"><g style="opacity: 0.3; transform-origin: 427.47px 384.4px;" class="animable"><path d="M427.62,384.44a.54.54,0,0,0-.22,0,.6.6,0,0,0-.08-.08Z" id="elkfw6iaz5z3b" class="animable" style="transform-origin: 427.47px 384.4px;"></path></g></g><g id="elk9u4h1evfb"><g style="opacity: 0.3; transform-origin: 420.758px 382.325px;" class="animable"><path d="M421.75,379.41a2,2,0,0,1,.19,1.43,8.39,8.39,0,0,1-.62,1c-.59,1.19.2,2.84-.68,3.84a2.15,2.15,0,0,1-1.12.6,21,21,0,0,1,1.52-7.91A3,3,0,0,1,421.75,379.41Z" id="el8me4yg4s14m" class="animable" style="transform-origin: 420.758px 382.325px;"></path></g></g><g id="elbst35hzdq0j"><g style="opacity: 0.3; transform-origin: 422.445px 390.459px;" class="animable"><path d="M421,394.07a21.52,21.52,0,0,1-1.38-5.65c1.1-.95,2.07-1.79,3.74-1.52a2.22,2.22,0,0,1,1.9,1.69,3.25,3.25,0,0,1-.18,1.34l-.39,1.41a1.18,1.18,0,0,1-.25.53c-.41.43-1.14,0-1.74.11a1.57,1.57,0,0,0-1.07.74,6.87,6.87,0,0,0-.57,1.23Z" id="elrbmnj7ys95" class="animable" style="transform-origin: 422.445px 390.459px;"></path></g></g><g id="eldvitctsytsj"><g style="opacity: 0.3; transform-origin: 428.2px 390.834px;" class="animable"><path d="M427.56,392.27a3.57,3.57,0,0,1-.08-.87,6.15,6.15,0,0,0-.38-1.17,1.21,1.21,0,0,1,.14-1.17.47.47,0,0,1,.33-.17.63.63,0,0,1,.36.19,6.6,6.6,0,0,1,1.4,2l-.21-.25a1.47,1.47,0,0,1,.27.83,1.17,1.17,0,0,1-.7,1.06A.9.9,0,0,1,427.56,392.27Z" id="elqnqiaoqu30s" class="animable" style="transform-origin: 428.2px 390.834px;"></path></g></g><g id="el3llvltzav0j"><g style="opacity: 0.3; transform-origin: 449.068px 371.17px;" class="animable"><path d="M449.7,372.32a1,1,0,0,0-.38-.22c-.42-.09-.73.39-1.13.53a1,1,0,0,1-1.12-.49c-1.15-1.86,1.58-3.13,3.07-2.38S452,374.07,449.7,372.32Z" id="elqqa27mar5j8" class="animable" style="transform-origin: 449.068px 371.17px;"></path></g></g><g id="elzvvxuvfhsz"><g style="opacity: 0.3; transform-origin: 451.745px 385.201px;" class="animable"><path d="M447.16,382.69a8.84,8.84,0,0,1-.39-2.1,2.93,2.93,0,0,1,.27-1.68,3.07,3.07,0,0,1,2.55-1.16,4.14,4.14,0,0,1,2.44.43,7.8,7.8,0,0,1,1.22,1.08c.67.61,1.47,1.07,2.14,1.67a3.76,3.76,0,0,1,1.08,1.54,7.54,7.54,0,0,1,1.16,4.82,2.84,2.84,0,0,1-.86,2c-1.06.85-2.73.23-3.9.92s-1.43,2.05-2.56,2.4-2.17-.57-2.91-1.46c-1-1.24-2-2.89-1.39-4.41.38-1,1.41-1.79,1.41-2.87A4.1,4.1,0,0,0,447.16,382.69Z" id="ells56rzindud" class="animable" style="transform-origin: 451.745px 385.201px;"></path></g></g><g id="el5mfr5s0p7gj"><g style="opacity: 0.3; transform-origin: 456.563px 378.888px;" class="animable"><path d="M457.41,380.08c-.5-.34-1-.67-1.52-1a1.2,1.2,0,0,1-.39-.35.72.72,0,0,1,.42-1A1.19,1.19,0,0,1,457,378a3.8,3.8,0,0,1,.7,1l-.37-.44A1.38,1.38,0,0,1,457.41,380.08Z" id="el9ffuyv232v" class="animable" style="transform-origin: 456.563px 378.888px;"></path></g></g><g id="elrkum7bny8ck"><g style="opacity: 0.3; transform-origin: 458.606px 383.108px;" class="animable"><path d="M459.39,383.9a.56.56,0,0,1-.74.4.75.75,0,0,1-.29-.44c-.16-.44-.33-.87-.49-1.3a.72.72,0,0,1-.06-.43.43.43,0,0,1,.48-.24.85.85,0,0,1,.47.32,3.58,3.58,0,0,1,.6,1.54l-.11-.8A1.57,1.57,0,0,1,459.39,383.9Z" id="elfo8t5jp59uu" class="animable" style="transform-origin: 458.606px 383.108px;"></path></g></g><g id="el7wfsvy9tlbe"><g style="opacity: 0.3; transform-origin: 430.86px 379.06px;" class="animable"><path d="M430.56,379.56a.57.57,0,0,1,.6-1A.57.57,0,0,1,430.56,379.56Z" id="elmhml0fmjcpr" class="animable" style="transform-origin: 430.86px 379.06px;"></path></g></g><g id="el666oa8b97qe"><g style="opacity: 0.3; transform-origin: 432.11px 376.825px;" class="animable"><path d="M432.49,376.19a.74.74,0,0,1-.76,1.27A.74.74,0,0,1,432.49,376.19Z" id="el1kvdohopuvf" class="animable" style="transform-origin: 432.11px 376.825px;"></path></g></g><g id="elxiaj8eqofq"><g style="opacity: 0.3; transform-origin: 434.244px 381.289px;" class="animable"><path d="M433,382.32a3.31,3.31,0,0,1,.33-4.08c.67-.67,1.75-1,2.39-.12a2.66,2.66,0,0,1-.19,2.83c-.38.73-.19,1.06,0,1.8a2.53,2.53,0,0,1,0,1.31,1.21,1.21,0,0,1-1.89.7C433,384.26,433,383.2,433,382.32Z" id="elrfo8qndrmdn" class="animable" style="transform-origin: 434.244px 381.289px;"></path></g></g><g id="elna9305anonl"><g style="opacity: 0.3; transform-origin: 429.195px 388.03px;" class="animable"><path d="M428.29,386.63a3.51,3.51,0,0,1,1.65.59l.18.11a1.28,1.28,0,0,1,.58,1.58,1,1,0,0,1-1.45.35,2.13,2.13,0,0,1-.56-.6,3.06,3.06,0,0,0-.77-.71C427.39,387.6,427.54,386.53,428.29,386.63Z" id="elkt3ardcj3s" class="animable" style="transform-origin: 429.195px 388.03px;"></path></g></g><g id="el3uwnh9gyq7z"><g style="opacity: 0.3; transform-origin: 431.794px 386.954px;" class="animable"><path d="M431.48,387.37a.59.59,0,0,1-.2-.37.5.5,0,0,1,.73-.54.6.6,0,0,1,.28.71A.49.49,0,0,1,431.48,387.37Z" id="el7x89v785ve" class="animable" style="transform-origin: 431.794px 386.954px;"></path></g></g><g id="elow9mm3ghzsr"><g style="opacity: 0.3; transform-origin: 444.112px 382.793px;" class="animable"><path d="M443.72,385.35c-1-.32-1.09-1.44-1.2-2.32s-.35-1.92.44-2.56a1.66,1.66,0,0,1,2.35.53,3.48,3.48,0,0,1,.41,2.67,1.52,1.52,0,0,1-.19.43c0,.08,0,.16-.07.25A1.43,1.43,0,0,1,443.72,385.35Z" id="elbmsvch30l6w" class="animable" style="transform-origin: 444.112px 382.793px;"></path></g></g><g id="el30fqhxzyi1m"><g style="opacity: 0.3; transform-origin: 444.114px 387.318px;" class="animable"><path d="M443.42,387.71a.67.67,0,0,1,0-.24v-.05a.8.8,0,0,1,.2-.79.66.66,0,0,1,.94,0,1,1,0,0,1,0,1.39A.7.7,0,0,1,443.42,387.71Z" id="elawmcb9dm78g" class="animable" style="transform-origin: 444.114px 387.318px;"></path></g></g><g id="el0lvo967tj1z"><g style="opacity: 0.3; transform-origin: 440.917px 385.407px;" class="animable"><path d="M441.4,387.87c-.74-.08-1-.75-1.23-1.35a11.63,11.63,0,0,1-.72-1.94,1.42,1.42,0,0,1,.49-1.5,1,1,0,0,1,1.36.32,4.94,4.94,0,0,1,.46,1.82,2,2,0,0,0,.06.26l0,0C442.57,386.14,442.85,388,441.4,387.87Z" id="elv8e2vfdrtu" class="animable" style="transform-origin: 440.917px 385.407px;"></path></g></g><g id="eli55a701vmxt"><g style="opacity: 0.3; transform-origin: 460.258px 379.66px;" class="animable"><path d="M461.71,383.23a4.21,4.21,0,0,1-2.32-1.91,5.09,5.09,0,0,1-.23-4.23,2.13,2.13,0,0,1,.16-1A21.48,21.48,0,0,1,461.71,383.23Z" id="el1yiuju8drwd" class="animable" style="transform-origin: 460.258px 379.66px;"></path></g></g><g id="elwkfkgmh4v8f"><g style="opacity: 0.3; transform-origin: 452.708px 394.568px;" class="animable"><path d="M453.46,396l-.12,0a2.41,2.41,0,0,1-1.9.89.57.57,0,0,1-.85,0,1.3,1.3,0,0,1-.34-.93,1.53,1.53,0,0,1,.08-1.09c.3-.65.85-.86,1.41-1.24l0,0a7.28,7.28,0,0,0,.67-.82,2.28,2.28,0,0,1,.36-.5,1.26,1.26,0,0,1,1.72.19,1.46,1.46,0,0,1,.16.19c.29.08.37.45.38.76s.14.53.2.8l-.21-.54a3.58,3.58,0,0,1-.26,1.49A1.36,1.36,0,0,1,453.46,396Z" id="elmj8j2dnlwb" class="animable" style="transform-origin: 452.708px 394.568px;"></path></g></g><g id="el65h60uf4zdm"><g style="opacity: 0.3; transform-origin: 446.292px 377.023px;" class="animable"><path d="M446.84,375.59a.83.83,0,0,1,.64,1.33,1.88,1.88,0,0,1-.64.51l-.18.11-.06.13a1.46,1.46,0,0,1-.42.61c-.44.37-1.31.14-1.24-.54a1.64,1.64,0,0,1,.49-1.08l0-.06A1.43,1.43,0,0,1,446.84,375.59Z" id="el8dx4gnsi2fc" class="animable" style="transform-origin: 446.292px 377.023px;"></path></g></g><g id="ela619oeygxcv"><g style="opacity: 0.3; transform-origin: 451.412px 400.028px;" class="animable"><path d="M448.72,400.87c.23-1.06,1.47-1.09,2.25-1.52s1-1.74,2-1.81a1.12,1.12,0,0,1,1.11,1.4A3.75,3.75,0,0,1,452.9,401a3,3,0,0,1-3,1.49A1.47,1.47,0,0,1,448.72,400.87Z" id="elukhy0yxin7l" class="animable" style="transform-origin: 451.412px 400.028px;"></path></g></g><g id="el8n00xldlgbh"><g style="opacity: 0.3; transform-origin: 455.523px 396.659px;" class="animable"><path d="M455.61,395.57c.26-.39,1-.37,1.08.16a2.84,2.84,0,0,1-.05,1.33c-.13.4-.47.91-.93.9l-.1,0a1.09,1.09,0,0,1-.69,0,1.06,1.06,0,0,1-.53-1.39,1.09,1.09,0,0,1,.54-.58C455.17,395.81,455.45,395.81,455.61,395.57Z" id="el0ozrwr2a8ky" class="animable" style="transform-origin: 455.523px 396.659px;"></path></g></g><g id="eljsfz52livke"><g style="opacity: 0.3; transform-origin: 456.313px 393.461px;" class="animable"><path d="M455.87,393.49a.5.5,0,0,1,.26-.46.4.4,0,0,1,.47.08.48.48,0,0,1,.13.51.43.43,0,0,1-.48.31A.46.46,0,0,1,455.87,393.49Z" id="el5mf27ugc5rk" class="animable" style="transform-origin: 456.313px 393.461px;"></path></g></g><g id="elh4k8esbco6"><g style="opacity: 0.3; transform-origin: 459.838px 393.96px;" class="animable"><path d="M458,398c.76-1.49.53-2.62.24-4.17a4.18,4.18,0,0,1,.14-2.5,4.34,4.34,0,0,1,3.4-2.12,21.13,21.13,0,0,1-2.83,8c-.31.52-.65,1-1,1.5A.86.86,0,0,1,458,398Z" id="el51ia7oto9j" class="animable" style="transform-origin: 459.838px 393.96px;"></path></g></g><g id="elnbpa0l73q4j"><g style="opacity: 0.3; transform-origin: 460.299px 387.304px;" class="animable"><path d="M460,388.48a.87.87,0,0,1-1.13-.34v0a1.06,1.06,0,0,1-.17-.26.82.82,0,0,1,.35-1,2.46,2.46,0,0,1,.55-.25,5.38,5.38,0,0,1,2.35-.59,20.45,20.45,0,0,1-.07,2.07A4.85,4.85,0,0,0,460,388.48Z" id="elixiqsqz5qop" class="animable" style="transform-origin: 460.299px 387.304px;"></path></g></g><g id="el7i6w5wcaxbm"><g style="opacity: 0.3; transform-origin: 460.484px 384.611px;" class="animable"><path d="M460.17,384.06a.47.47,0,0,1,.83,0c0,.06.05.12.08.19l0,0a.6.6,0,0,1,0,.45.92.92,0,0,1-.16.39l-.12.12-.07.08a.42.42,0,0,1-.59,0,1,1,0,0,1-.29-.81A.68.68,0,0,1,460.17,384.06Z" id="el4l6xky1jnyr" class="animable" style="transform-origin: 460.484px 384.611px;"></path></g></g><g id="el4c5xogfiuoq"><g style="opacity: 0.3; transform-origin: 456.711px 390.752px;" class="animable"><path d="M457.84,390.61a.82.82,0,0,1-.5.3c-.35.66-1.17,1.22-1.73.61a.76.76,0,0,1,.19-1.12,6.1,6.1,0,0,1,1.43-.63A.53.53,0,0,1,457.84,390.61Z" id="el4ygmhh7qipx" class="animable" style="transform-origin: 456.711px 390.752px;"></path></g></g><g id="elp4h1t1eijj"><g style="opacity: 0.3; transform-origin: 426.33px 379.922px;" class="animable"><path d="M424.66,379.69a1.18,1.18,0,0,1,1.2-.49,2.55,2.55,0,0,0,1.36-.2.6.6,0,0,1,.79.83,2,2,0,0,1-1.39,1,1.66,1.66,0,0,1-1.43-.21,1.29,1.29,0,0,1-.35-.18A.53.53,0,0,1,424.66,379.69Z" id="elcyu25a92h6m" class="animable" style="transform-origin: 426.33px 379.922px;"></path></g></g><g id="elpfndi1fhm8e"><g style="opacity: 0.3; transform-origin: 423.514px 374.14px;" class="animable"><path d="M423.71,375a2.73,2.73,0,0,1-1.37.79l.21-.38a22.48,22.48,0,0,1,2.12-2.92l0,.06A2.8,2.8,0,0,1,423.71,375Z" id="elg6ng77512p5" class="animable" style="transform-origin: 423.514px 374.14px;"></path></g></g><g id="elcycbl5dry65"><g style="opacity: 0.3; transform-origin: 433.246px 397.121px;" class="animable"><path d="M429.53,397.82c-.14-.76.66-1.29,1.3-1.47.93-.26,1.79,0,2.64-.58a3.74,3.74,0,0,1,2.21-.95,1.4,1.4,0,0,1,1.28,1.07,1.74,1.74,0,0,1-.5,1.49,2.8,2.8,0,0,1-.95,1.36,3.4,3.4,0,0,1-3.42.39C431,399.27,429.72,398.93,429.53,397.82Z" id="el2db5qzvf5jz" class="animable" style="transform-origin: 433.246px 397.121px;"></path></g></g><g id="elew3wo9mfwi"><g style="opacity: 0.3; transform-origin: 433.106px 394.684px;" class="animable"><path d="M432.35,395.26a.78.78,0,0,1-.06-.92,1,1,0,0,1,1.07-.45.58.58,0,0,1,.48.2c.5.52,0,1.27-.63,1.39A1,1,0,0,1,432.35,395.26Z" id="elfvzaoraxm1s" class="animable" style="transform-origin: 433.106px 394.684px;"></path></g></g><g id="eldzln824v1j5"><g style="opacity: 0.3; transform-origin: 437.493px 398.163px;" class="animable"><path d="M437.13,399a.52.52,0,0,1-.38-.39,1.33,1.33,0,0,1,.37-1.17.56.56,0,0,1,.92.26.73.73,0,0,1,.14.84A.9.9,0,0,1,437.13,399Z" id="elri4k243d03h" class="animable" style="transform-origin: 437.493px 398.163px;"></path></g></g><g id="elxm5j6f8g8d"><g style="mix-blend-mode: multiply; opacity: 0.2; transform-origin: 435.947px 386.858px;" class="animable"><path d="M434.58,366.1a21.2,21.2,0,0,0,17.82,38,21.21,21.21,0,1,1-17.82-38Z" id="eljlsl0de0zk" class="animable" style="transform-origin: 435.947px 386.858px;"></path></g></g></g><g id="freepik--planet-1--inject-17" class="animable" style="transform-origin: 110.638px 77.4px;"><g id="elb4o23o7qov9"><ellipse cx="111.07" cy="77.4" rx="29.48" ry="28" style="fill: rgb(113, 0, 78); transform-origin: 111.07px 77.4px; transform: rotate(-48.75deg);" class="animable"></ellipse></g><g id="elf4wa886nfq5"><g style="opacity: 0.2; transform-origin: 111.058px 76.88px;" class="animable"><path d="M87,68.06a19.11,19.11,0,0,0,7.62-1.18c.6-.2.36-1-.15-1.12-2.23-.29-4.35-.62-6.62-.7-.61,0-1.26-.09-1.93-.14-.49.94-1,1.91-1.35,2.91A23.93,23.93,0,0,0,87,68.06Z" id="elyucjojqnk2" class="animable" style="transform-origin: 89.7719px 66.5017px;"></path><path d="M89.42,72.72a43.47,43.47,0,0,0,17.87-2.89,50.55,50.55,0,0,0,15.95-9.78,44.13,44.13,0,0,0,5.67-6.11,28.49,28.49,0,0,0-2.43-1.62,31.91,31.91,0,0,1-4.57,5.28,49.28,49.28,0,0,1-13,8.7,44.77,44.77,0,0,1-14.37,4.06c-3.15.31-7.42.61-10.75-.49-.2.62-.37,1.24-.53,1.87A26,26,0,0,0,89.42,72.72Z" style="fill: rgb(255, 255, 255); transform-origin: 106.085px 62.5465px;" id="el35jlvnkiyk9" class="animable"></path><path d="M102.9,55.66c2.86-.89,7.91-3.66,9.26-7.1a29.23,29.23,0,0,0-3,.19,5.91,5.91,0,0,1-.35.52,13.62,13.62,0,0,1-5.24,3.8c-2.26,1-6.21,2.26-9.29,1.83-.49.38-1,.78-1.43,1.19C95.85,57.29,100.12,56.52,102.9,55.66Z" style="fill: rgb(255, 255, 255); transform-origin: 102.505px 52.6341px;" id="elajjdik8fazw" class="animable"></path><path d="M93,82.48c7.31-.11,14.37-2.31,21.17-5.24a52.42,52.42,0,0,0,16.88-11.11A40.53,40.53,0,0,0,135.44,61,26.9,26.9,0,0,0,131.29,56a43.19,43.19,0,0,1-6.15,6.62,54.13,54.13,0,0,1-14.58,8.74,53.94,53.94,0,0,1-17.09,4.55,42.12,42.12,0,0,1-8.63-.33c-.74-.11-1.46-.24-2.18-.39a29.11,29.11,0,0,0-.15,6.1A37,37,0,0,0,93,82.48Z" id="elb9iskmhep65" class="animable" style="transform-origin: 108.928px 69.2484px;"></path><path d="M105.18,98.4a95.24,95.24,0,0,1-12.33,2.17c.58.46,1.19.89,1.82,1.3,9.47-.65,19.18-3.74,27.73-7.44A96.57,96.57,0,0,0,138,86c.21-.56.39-1.12.56-1.7a94.17,94.17,0,0,1-16.25,8.65A109.71,109.71,0,0,1,105.18,98.4Z" id="eln0ffa5n82ym" class="animable" style="transform-origin: 115.705px 93.085px;"></path><path d="M104.71,59.75a26.62,26.62,0,0,0,10.88-6.37,22.65,22.65,0,0,0,3.21-4.11,24.8,24.8,0,0,0-2.6-.47,16.15,16.15,0,0,1-2.66,3.44,24.69,24.69,0,0,1-9.13,5.51c-4.78,1.7-10.2,2.81-15.15,2.09-.43.54-.85,1.08-1.25,1.64C93.39,62.65,100.11,61.24,104.71,59.75Z" style="fill: rgb(255, 255, 255); transform-origin: 103.405px 55.3567px;" id="elud9uwbiqex" class="animable"></path><path d="M139.7,77a72.51,72.51,0,0,1-6,5.2,68.61,68.61,0,0,1-13.43,8.16,68.64,68.64,0,0,1-15.87,4.8c-5,.93-10.66,2-15.78,1.38.43.51.87,1,1.33,1.49,3.93.38,8.34-.53,12-1.06a74.67,74.67,0,0,0,17.54-4.56A71,71,0,0,0,139.43,80c0-.09,0-.18,0-.26C139.59,78.82,139.67,77.89,139.7,77Z" style="fill: rgb(255, 255, 255); transform-origin: 114.16px 87.5601px;" id="eloebbmkimxl" class="animable"></path><path d="M118.7,88.45a73.1,73.1,0,0,0,19.17-12.19c.62-.55,1.22-1.12,1.82-1.7a27.82,27.82,0,0,0-2.57-10.48,46.11,46.11,0,0,1-5.92,6.1,65.89,65.89,0,0,1-16.51,10.18,57.27,57.27,0,0,1-19.32,5,45.7,45.7,0,0,1-10.59-.57c-.61-.1-1.22-.23-1.83-.37a27.32,27.32,0,0,0,4,9.77,46.43,46.43,0,0,0,7.84.3A66.84,66.84,0,0,0,118.7,88.45Z" style="fill: rgb(255, 255, 255); transform-origin: 111.32px 79.3099px;" id="elutuqtxlk6b9" class="animable"></path><path d="M114.67,57c-2.1,1.26-3.74,3-6,4s-5,1.48-7.15,3c-1,.73-.19,2.18.87,2,2.7-.34,5.77-2,8.28-3.15,2-1,4.38-2.63,5-4.89C115.85,57.38,115.33,56.58,114.67,57Z" id="elanpfq0v96s6" class="animable" style="transform-origin: 108.385px 61.4491px;"></path><path d="M117.79,100.51a7.25,7.25,0,0,0-1.36,1c-.44.39,0,1.19.52.88a5.64,5.64,0,0,1,1.28-.52,5.57,5.57,0,0,0,1.27-.63.45.45,0,0,0-.11-.85A2.28,2.28,0,0,0,117.79,100.51Z" style="fill: rgb(255, 255, 255); transform-origin: 118.004px 101.379px;" id="elksctw9jl93c" class="animable"></path><path d="M131.9,91.38C129,92.93,125.55,93.88,123,96c-.57.47-.37,1.58.42,1.57,3.44,0,7-2.18,10-3.85l.74-.43A30,30,0,0,0,137,88.32C135.33,89.4,133.63,90.44,131.9,91.38Z" id="el86qazqus4r8" class="animable" style="transform-origin: 129.837px 92.945px;"></path><path d="M111.81,102.33c.81-.57.12-1.57-.64-1.52-2.62.18-5.27,1.46-7.89,2-1.73.35-3.46.67-5.2.94A27,27,0,0,0,102,105.2C105.55,105,109.16,104.19,111.81,102.33Z" style="fill: rgb(255, 255, 255); transform-origin: 105.127px 103.004px;" id="el1p1zkq7n8ox" class="animable"></path></g></g><path d="M119.87,102.49a3.66,3.66,0,0,1-.82.43,21.05,21.05,0,0,1-2.36.88,25.67,25.67,0,0,1-8.22,1.13,27.31,27.31,0,0,1-4.56-.53,23.59,23.59,0,0,1-3.59-1.07,12.2,12.2,0,0,1-1.32-.56,9.59,9.59,0,0,1-1-.49,4.94,4.94,0,0,1-.79-.48c0-.07,1.2.56,3.18,1.25a26.19,26.19,0,0,0,3.57,1,27.67,27.67,0,0,0,4.49.49,28.12,28.12,0,0,0,8.12-1C118.63,103,119.84,102.42,119.87,102.49Z" style="fill: rgb(255, 255, 255); transform-origin: 108.54px 103.367px;" id="elvj7lqk0zj2" class="animable"></path><path d="M132.62,59.23c.11.09-.28.77-1.1,1.92l-.7,1c-.26.34-.58.68-.91,1.06a30.77,30.77,0,0,1-2.36,2.49L126.09,67c-.51.47-1.09.9-1.67,1.38-1.14,1-2.48,1.85-3.87,2.81a50,50,0,0,1-20.44,7.55c-1.68.17-3.27.38-4.77.38-.75,0-1.47.06-2.17,0l-2-.1a30.59,30.59,0,0,1-3.41-.36c-.5-.07-1-.13-1.39-.21l-1.15-.28c-1.38-.34-2.11-.6-2.09-.74s.82-.17,2.21-.08l1.16.09,1.37,0c1,0,2.1.11,3.33,0l1.94,0c.67,0,1.36-.1,2.09-.15,1.44-.08,3-.34,4.58-.56A62.59,62.59,0,0,0,110,74.13a61.26,61.26,0,0,0,9.5-4.58c1.37-.87,2.7-1.66,3.85-2.55.58-.43,1.16-.81,1.69-1.23l1.49-1.23c1-.75,1.77-1.54,2.51-2.19.37-.34.72-.63,1-.92l.82-.82C131.89,59.64,132.5,59.14,132.62,59.23Z" style="fill: rgb(113, 0, 78); transform-origin: 107.884px 69.1832px;" id="eljbiycllf6n" class="animable"></path><path d="M138,85.61s0-.07,0-.21.08-.37.14-.63c.14-.58.33-1.38.58-2.4l0-.05s0,.1,0,.11l0-.07.07-.4v0l0,0h0l0,0a28.47,28.47,0,0,0,0-9.42l.05-.13c-.05,0-.07.17,0,.2l0-.08a27.69,27.69,0,0,0-16.19-20.6l.22,0h0l-.1.09-.13,0a24.79,24.79,0,0,0-3.75-1.37,27,27,0,0,0-17,1.06,30.56,30.56,0,0,0-11.54,8,28.87,28.87,0,0,0-5.15,8A25.53,25.53,0,0,0,84.23,70c-.09.26-.16.48-.22.64a.73.73,0,0,1-.09.22A21.12,21.12,0,0,1,85,67.52a28.23,28.23,0,0,1,5.07-8.13,30.6,30.6,0,0,1,11.63-8.15,28.76,28.76,0,0,1,8.21-1.93,25.34,25.34,0,0,1,9,.83,26.76,26.76,0,0,1,3.81,1.39l-.24,0h0l.1-.1.12.06a27.81,27.81,0,0,1,16.33,21l0-.08c.06,0,0,.2,0,.22l0-.14A27.78,27.78,0,0,1,139,82v0l0,0h0l0,0c0,.14-.06.28-.08.4l0-.07s0,.11,0,.12l0,0-.66,2.39c-.07.26-.13.46-.18.62S138,85.61,138,85.61Z" style="fill: rgb(255, 255, 255); transform-origin: 111.673px 67.4118px;" id="elyajtaqag56q" class="animable"></path><path d="M83.66,87.35c-.11-.32-.2-.64-.3-1C70.71,92.76,65,97,64.1,99.07a.61.61,0,0,0-.07.38l0,.07c0,.1.21.19.29.22,1.41.62,9,1.37,47.47-14.77,23.15-9.71,39.36-19.53,44-23.74a.78.78,0,0,0-.54-1.38c-3,.25-9.12,1.58-18.05,4.41.1.23.21.46.3.7,7.35-2.3,12.1-3.19,12.49-2.14.78,2.12-16.25,11.26-38.06,20.42S71.81,98.12,71,96C70.59,94.85,75.53,91.58,83.66,87.35Z" style="fill: rgb(113, 0, 78); transform-origin: 110.049px 79.9201px;" id="el8eme02uiaxr" class="animable"></path><path d="M135.9,61.54c.1.18.19.38.29.57,11.38-3.66,19.69-5.4,22.08-4.36a1.83,1.83,0,0,1,1.19,1.84c0,.84-.16,3.39-14.34,11.65a290.91,290.91,0,0,1-32.49,15.93c-5,2.08-10.28,4.24-15.51,6.25-15.08,5.8-29.55,10.37-33.8,8.52a2.63,2.63,0,0,1-1.5-1.51,2.86,2.86,0,0,1,.11-2.21c1.57-3.65,10.7-9.06,20.82-14.13,0-.14-.08-.27-.1-.41-17,8.71-27.51,16.28-26.8,19.55,1.52,7,27.66-.65,57.91-13.36S167,61.66,165.38,57.19C164.28,54.23,152.52,56.18,135.9,61.54Z" style="fill: rgb(113, 0, 78); transform-origin: 110.638px 80.8475px;" id="elq72ae46qan" class="animable"></path><path d="M142.9,65.05c.23,0-1.19,1.34-1.23,1.37a17.55,17.55,0,0,1-1.87,1.21c-1.7,1-3.45,2-5.22,2.91-2.5,1.28-5.19,2.27-7.52,3.87a.25.25,0,0,0,.22.45c5.15-1.31,11.14-4.65,15.41-7.94.61-.47,1.61-1.13,1.31-2-.2-.59-.65-.72-1.22-.5a.34.34,0,0,0,.12.66Z" style="fill: rgb(113, 0, 78); transform-origin: 135.488px 69.6023px;" id="elgs8qmqmhchu" class="animable"></path><g id="el5cvyj6y1x6b"><g style="opacity: 0.3; transform-origin: 110.049px 79.9201px;" class="animable"><path d="M83.66,87.35c-.11-.32-.2-.64-.3-1C70.71,92.76,65,97,64.1,99.07a.61.61,0,0,0-.07.38l0,.07c0,.1.21.19.29.22,1.41.62,9,1.37,47.47-14.77,23.15-9.71,39.36-19.53,44-23.74a.78.78,0,0,0-.54-1.38c-3,.25-9.12,1.58-18.05,4.41.1.23.21.46.3.7,7.35-2.3,12.1-3.19,12.49-2.14.78,2.12-16.25,11.26-38.06,20.42S71.81,98.12,71,96C70.59,94.85,75.53,91.58,83.66,87.35Z" id="el8ucv8m5fnbo" class="animable" style="transform-origin: 110.049px 79.9201px;"></path><path d="M142.9,65.05c.23,0-1.19,1.34-1.23,1.37a17.55,17.55,0,0,1-1.87,1.21c-1.7,1-3.45,2-5.22,2.91-2.5,1.28-5.19,2.27-7.52,3.87a.25.25,0,0,0,.22.45c5.15-1.31,11.14-4.65,15.41-7.94.61-.47,1.61-1.13,1.31-2-.2-.59-.65-.72-1.22-.5a.34.34,0,0,0,.12.66Z" id="elds66d3y24l8" class="animable" style="transform-origin: 135.488px 69.6023px;"></path></g></g><g id="elgxkpnu56res"><g style="opacity: 0.3; transform-origin: 110.638px 80.8475px;" class="animable"><path d="M135.9,61.54c.1.18.19.38.29.57,11.38-3.66,19.69-5.4,22.08-4.36a1.83,1.83,0,0,1,1.19,1.84c0,.84-.16,3.39-14.34,11.65a290.91,290.91,0,0,1-32.49,15.93c-5,2.08-10.28,4.24-15.51,6.25-15.08,5.8-29.55,10.37-33.8,8.52a2.63,2.63,0,0,1-1.5-1.51,2.86,2.86,0,0,1,.11-2.21c1.57-3.65,10.7-9.06,20.82-14.13,0-.14-.08-.27-.1-.41-17,8.71-27.51,16.28-26.8,19.55,1.52,7,27.66-.65,57.91-13.36S167,61.66,165.38,57.19C164.28,54.23,152.52,56.18,135.9,61.54Z" id="elrcqqzva7epn" class="animable" style="transform-origin: 110.638px 80.8475px;"></path></g></g></g><g id="freepik--Cat--inject-17" class="animable" style="transform-origin: 254.796px 261.118px;"><path d="M109.73,246.49c-6.06,4.75-9.6,12-12.14,19.27-8.75,24.95-9,53-7.13,79.32.64,8.68,2.59,17,7.64,24.08,5.52,7.75,15.21,11.67,24.7,12.4s19-1.29,28.25-3.32l16.72-131.72C157.92,239.84,118,240,109.73,246.49Z" style="fill: rgb(224, 224, 224); transform-origin: 128.646px 311.639px;" id="el1aqg1xqfc2f" class="animable"></path><path d="M109.73,246.49s.28-.22.85-.62a16.09,16.09,0,0,1,2.8-1.28A52,52,0,0,1,125,242.17a127.18,127.18,0,0,1,18.72-.64,106.45,106.45,0,0,1,11.66,1,59.56,59.56,0,0,1,6.28,1.25,22.56,22.56,0,0,1,6.26,2.55l.09.06v.12c-4.21,33.33-10,78.68-16.26,128.58-.13,1.07-.27,2.15-.4,3.15l0,.18-.18,0a147.41,147.41,0,0,1-18.81,3.23,59.75,59.75,0,0,1-9.36.1,43,43,0,0,1-9.06-1.68,35.71,35.71,0,0,1-8.26-3.7,28.19,28.19,0,0,1-6.7-5.83,38.84,38.84,0,0,1-7.21-15.47A61.26,61.26,0,0,1,90.39,347c-.24-2.71-.39-5.38-.55-8-.32-5.27-.47-10.39-.53-15.33a218.2,218.2,0,0,1,1.35-27.47,145.47,145.47,0,0,1,4.26-22.27,87.91,87.91,0,0,1,5.86-16.06,35.39,35.39,0,0,1,6.13-8.86q.65-.68,1.17-1.14c.35-.32.64-.58.89-.77.5-.4.76-.59.76-.59l-.72.63a10.75,10.75,0,0,0-.87.79c-.35.31-.73.7-1.15,1.15a35.6,35.6,0,0,0-6,8.88A89.05,89.05,0,0,0,95.2,274,145.68,145.68,0,0,0,91,296.22a218.14,218.14,0,0,0-1.28,27.42c.07,4.94.23,10.05.56,15.31.16,2.63.31,5.3.56,8a59.89,59.89,0,0,0,1.31,8.1,38.34,38.34,0,0,0,7.12,15.27,27.4,27.4,0,0,0,6.59,5.71,35.77,35.77,0,0,0,8.14,3.65,43.1,43.1,0,0,0,9,1.65,60,60,0,0,0,9.28-.1A147.58,147.58,0,0,0,151,378l-.2.22c.12-1,.26-2.07.4-3.15L167.58,246.5l.09.18a22.08,22.08,0,0,0-6.15-2.51,60.41,60.41,0,0,0-6.23-1.27,106,106,0,0,0-11.62-1.06,126.77,126.77,0,0,0-18.68.54,53,53,0,0,0-11.57,2.31,17.79,17.79,0,0,0-2.81,1.23Z" style="fill: rgb(38, 50, 56); transform-origin: 128.649px 311.659px;" id="elkv22im0hes" class="animable"></path><path d="M130.59,258s0,.11-.08.31l-.27.91c-.26.83-.62,2-1.09,3.49l-.79,2.52c-.27.93-.55,1.93-.86,3-.59,2.17-1.34,4.62-2,7.39-.34,1.37-.69,2.82-1,4.32s-.65,3.09-1,4.71c-.73,3.26-1.28,6.78-1.91,10.47a240.8,240.8,0,0,0-2.45,24.24c-.36,8.64-.2,16.88.24,24.36.29,3.74.52,7.29,1,10.6.2,1.65.34,3.25.57,4.78s.44,3,.65,4.4c.37,2.81.9,5.32,1.3,7.54q.3,1.67.57,3.09l.57,2.57c.32,1.53.58,2.72.76,3.57l.19.94a1.11,1.11,0,0,1,0,.32s0-.11-.09-.31l-.24-.92c-.21-.85-.49-2-.86-3.55-.19-.78-.39-1.64-.61-2.57s-.4-2-.62-3.08c-.42-2.22-1-4.73-1.37-7.54l-.69-4.4c-.24-1.53-.39-3.14-.6-4.8-.45-3.31-.69-6.87-1-10.61a232.83,232.83,0,0,1-.28-24.42A235.69,235.69,0,0,1,121.09,295c.65-3.7,1.22-7.22,2-10.47.35-1.63.65-3.22,1-4.72s.74-2.95,1.08-4.32c.65-2.77,1.43-5.22,2-7.39.32-1.08.61-2.09.9-3s.59-1.75.84-2.5c.5-1.48.9-2.64,1.18-3.46l.32-.89C130.54,258.06,130.58,258,130.59,258Z" style="fill: rgb(38, 50, 56); transform-origin: 124.512px 319.765px;" id="elszky3je4vt8" class="animable"></path><path d="M108.32,278.79s.06,0,.17,0l.48.07a16.4,16.4,0,0,1,1.87.42,39.14,39.14,0,0,1,6.68,2.82l.1,0,0,.11A208,208,0,0,0,112.37,322v.26h-.25l-9.73-.16-7.14-.12H95l-.05-.19c-.13-.49-.27-1-.4-1.47v0a105.08,105.08,0,0,1,.2-23.64c.41-3.48.92-6.68,1.44-9.59.68-2.89,1.52-5.38,2.22-7.55l0-.05h0a3.25,3.25,0,0,1,1.14-.36c.37-.07.73-.13,1.07-.17.7-.09,1.35-.15,2-.2,1.21-.09,2.25-.1,3.09-.09a18.37,18.37,0,0,1,1.92.12l.49.08c.11,0,.16,0,.16,0l-.66,0c-.43,0-1.07-.06-1.91-.05s-1.87.05-3.08.16c-.6.06-1.25.13-1.93.23l-1,.18a4.08,4.08,0,0,0-1,.31l0-.06c-.67,2.17-1.5,4.69-2.13,7.53s-1,6.1-1.37,9.57a105,105,0,0,0-.12,23.53v0c.13.49.27,1,.4,1.48l-.24-.19,7.14.12,9.73.17-.27.25a198.47,198.47,0,0,1,5.47-39.75l.08.16a42.45,42.45,0,0,0-6.61-2.92c-.79-.26-1.41-.4-1.83-.5A5.11,5.11,0,0,1,108.32,278.79Z" style="fill: rgb(38, 50, 56); transform-origin: 105.8px 300.463px;" id="elrg95h8tqg3" class="animable"></path><path d="M108.14,288.85a2.92,2.92,0,1,1-3.47-2.22A2.92,2.92,0,0,1,108.14,288.85Z" style="fill: rgb(38, 50, 56); transform-origin: 105.29px 289.484px;" id="elkcrx1ibsse" class="animable"></path><path d="M106.65,299.56a2.92,2.92,0,1,1-3.48-2.22A2.92,2.92,0,0,1,106.65,299.56Z" style="fill: rgb(38, 50, 56); transform-origin: 103.799px 300.191px;" id="el0jnfdxf99lra" class="animable"></path><path d="M97.2,335.4c-6.35,2.82-13.62,6.74-14.69,14.39-1,7,4.48,13.23,11.07,14.82a22.29,22.29,0,0,0,12.89-1.08,2.58,2.58,0,0,0,1.74-3.08,2.52,2.52,0,0,0-3.07-1.75c-3.52,1.32-7.37,2-11,.87a9.63,9.63,0,0,1-6.33-5.84c-2.47-7.44,6.62-11.65,12-14a2.53,2.53,0,0,0,.9-3.42,2.59,2.59,0,0,0-3.43-.9Z" style="fill: rgb(38, 50, 56); transform-origin: 95.3381px 350.1px;" id="elkriwogqym1r" class="animable"></path><path d="M265.53,325.79A28.73,28.73,0,0,1,288.12,289c9.65-1.66,19.62,1.76,27.72,7.27s14.64,13,21.08,20.34c.61-13.08,4.1-26.14,11-37.3,2.82-4.59,7.93-9.51,13.29-4.82a11.28,11.28,0,0,1,3.28,5.16c1.74,5.6,2.28,10.89,2,19.11a323.82,323.82,0,0,1-6.62,52.88,8.36,8.36,0,0,1-4.79,5.92c-12.35,5.46-51.16,20.6-74.13,6.2" style="fill: rgb(245, 245, 245); transform-origin: 315.406px 321.198px;" id="elu8rqxy0y43" class="animable"></path><g style="clip-path: url(&quot;#freepik--clip-path--inject-17&quot;); transform-origin: 366.557px 313.855px;" id="el9c63ldjlz3" class="animable"><path d="M357.8,356.46c-1.67,1-3.94-.15-4.87-1.84s-.9-3.74-.84-5.67L353.92,287c.11-3.49.23-7.1,1.66-10.29s4.5-5.91,8-5.83,6.44,2.93,8.87,5.57l8.6,58Z" style="fill: rgb(224, 224, 224); transform-origin: 366.557px 313.855px;" id="elt0g86a9jfor" class="animable"></path></g><path d="M356.31,277.21a7.58,7.58,0,0,1-.15.8c-.12.52-.29,1.29-.49,2.28-.4,2-.91,4.86-1.32,8.45s-.68,7.89-.83,12.67-.23,10-.36,15.57c-.27,11-.52,21-.7,28.28,0,1.81-.14,3.45-.06,4.87a10,10,0,0,0,.74,3.55,4.68,4.68,0,0,0,1.37,1.81c.41.32.68.43.66.46a2.56,2.56,0,0,1-.73-.38,4.67,4.67,0,0,1-1.49-1.8,10.27,10.27,0,0,1-.84-3.62c-.11-1.45,0-3.09,0-4.9.14-7.28.34-17.26.55-28.29.13-5.52.22-10.78.4-15.56s.49-9.1.95-12.7a83.48,83.48,0,0,1,1.48-8.46c.23-1,.44-1.74.59-2.25A3.57,3.57,0,0,1,356.31,277.21Z" style="fill: rgb(38, 50, 56); transform-origin: 354.186px 316.58px;" id="elkcwb4b1yzsg" class="animable"></path><path d="M362.62,339.35a54.86,54.86,0,0,1-10.4,1.86,27.64,27.64,0,0,1,5.16-1.19A27.31,27.31,0,0,1,362.62,339.35Z" style="fill: rgb(38, 50, 56); transform-origin: 357.42px 340.28px;" id="el1xf7qpq418g" class="animable"></path><path d="M364.23,322.21a31.8,31.8,0,0,1-5.64,1.35,31,31,0,0,1-5.73.84,32.88,32.88,0,0,1,5.64-1.35A33.21,33.21,0,0,1,364.23,322.21Z" style="fill: rgb(38, 50, 56); transform-origin: 358.545px 323.305px;" id="el7t23yqjkakm" class="animable"></path><path d="M366,305.23a38.07,38.07,0,0,1-6.15,1.37,36.85,36.85,0,0,1-6.25.86,77,77,0,0,1,12.4-2.23Z" style="fill: rgb(38, 50, 56); transform-origin: 359.8px 306.345px;" id="elu6smm7culwf" class="animable"></path><path d="M366.3,289.27a17,17,0,0,1-5.88,1.67,17.56,17.56,0,0,1-6.11.16c0-.15,2.73-.15,6-.67S366.26,289.14,366.3,289.27Z" style="fill: rgb(38, 50, 56); transform-origin: 360.305px 290.275px;" id="elnx4dyfbj2s" class="animable"></path><path d="M265.65,325.75a29.19,29.19,0,0,1,1.57-20.87,28.76,28.76,0,0,1,13.37-13.33c13.4-6.52,28.51-.87,39.37,7.92,6.26,5.07,11.59,11.16,16.87,17.2a.13.13,0,0,0,.22-.08A83.17,83.17,0,0,1,341.89,292a71.13,71.13,0,0,1,5.41-11.52c1.84-3.13,4.42-6.92,8.25-7.68,4.6-.92,7.84,3.68,9,7.51a45.62,45.62,0,0,1,1.72,9.91c.52,7.86-.19,15.87-.91,23.7q-1.17,12.79-3.32,25.47c-.68,4-1.41,8-2.27,12-.76,3.44-3.06,5.31-6.14,6.64a153.13,153.13,0,0,1-30.34,9.68c-12.46,2.51-26.44,3.48-38.31-1.92a36.67,36.67,0,0,1-4-2.15c-.13-.09-.26.13-.12.21,8,5,17.67,6.35,27,6a111.33,111.33,0,0,0,28.35-5.18c3.9-1.19,7.77-2.53,11.58-4q2.33-.9,4.63-1.87a23.3,23.3,0,0,0,4-1.87,8.82,8.82,0,0,0,3.67-5.7c.64-3,1.2-5.94,1.73-8.93q1.67-9.35,2.8-18.77t1.74-19c.34-5.85.65-11.78-.11-17.61-.59-4.53-1.53-9.92-5.32-12.92-4.35-3.44-9-.47-11.83,3.31-3.6,4.75-6.08,10.64-8,16.25a81.44,81.44,0,0,0-3.9,18.13c-.05.45-.22,4.38-.34,4.4-.3.07-1.17-1.2-1.4-1.46l-1.74-2c-2.09-2.35-4.22-4.68-6.44-6.92A70.43,70.43,0,0,0,313,294.32c-9.81-5.76-22-8.14-32.55-3a29,29,0,0,0-15,34.49c0,.15.29.09.24-.07Z" style="fill: rgb(38, 50, 56); transform-origin: 315.458px 321.192px;" id="elm99elqc40cr" class="animable"></path><g id="elinmjh1bp15"><g style="opacity: 0.3; transform-origin: 332.826px 341.626px;" class="animable"><path d="M330.73,366.52c-1.72,9.15,10.68-15.51,11.95-24.73a44.93,44.93,0,0,0-4.23-26c-.17-.36-.35-.71-.54-1.06,0,0-15.62,14.7-15.35,14.52S334.32,347.47,330.73,366.52Z" id="eli8bb9vqzyra" class="animable" style="transform-origin: 332.826px 341.626px;"></path></g></g><path d="M320.17,326.07c15.42,18.73,13.7,47.79.07,67.87s-36.82,32-60.52,37.19c-21.08,4.64-43.63,4.46-63.71-3.44-30.27-11.91-52.11-40.88-59.46-72.57s-1.3-65.52,12.56-94.95l75.62-35Z" style="fill: rgb(245, 245, 245); transform-origin: 232.254px 329.691px;" id="elks97v4xzrgi" class="animable"></path><path d="M320.17,326.07s-.61-.61-1.76-1.81l-5.08-5.33L294,298.59l-69.42-73.26.24,0-75.6,35,.12-.12a168.74,168.74,0,0,0-13.46,42.06,134,134,0,0,0-.3,46.69,109.79,109.79,0,0,0,27.62,55.71,92.58,92.58,0,0,0,23.56,18.32l3.24,1.7c1.08.56,2.22,1,3.32,1.49s2.21,1,3.34,1.42L200,428.9a94.06,94.06,0,0,0,13.76,3.49,108.08,108.08,0,0,0,13.77,1.49,120.73,120.73,0,0,0,13.48-.24,124.08,124.08,0,0,0,13-1.62c4.24-.75,8.38-1.66,12.39-2.79,16.06-4.41,30.16-11.72,40.83-21.05a72.64,72.64,0,0,0,13.31-15.09,63.84,63.84,0,0,0,7.6-16.26,61.77,61.77,0,0,0,2.69-15.4c0-.6.06-1.19.1-1.78s0-1.17,0-1.75c0-1.15,0-2.28-.1-3.37a59.64,59.64,0,0,0-.78-6.22,48,48,0,0,0-6.3-17,34,34,0,0,0-2.66-3.93c-.63-.87-.94-1.32-.94-1.32s.34.43,1,1.28a34.66,34.66,0,0,1,2.71,3.91,47.77,47.77,0,0,1,6.4,17,54.72,54.72,0,0,1,.81,6.23c.1,1.1.07,2.23.11,3.39,0,.58,0,1.16,0,1.75l-.09,1.79a61.87,61.87,0,0,1-2.66,15.48,64.52,64.52,0,0,1-7.6,16.35,73,73,0,0,1-13.35,15.19c-10.7,9.38-24.85,16.75-40.95,21.18a125.64,125.64,0,0,1-12.43,2.81,122.53,122.53,0,0,1-13,1.65,124.26,124.26,0,0,1-13.54.25,107.55,107.55,0,0,1-13.84-1.49,94.36,94.36,0,0,1-13.83-3.5l-3.4-1.24c-1.14-.41-2.23-.95-3.35-1.42s-2.26-.93-3.34-1.5l-3.27-1.71a92.5,92.5,0,0,1-23.69-18.4,110.32,110.32,0,0,1-27.77-56,134.76,134.76,0,0,1,.31-46.87,169.26,169.26,0,0,1,13.52-42.19l0-.08.08,0L224.64,225l.14-.07.11.11,69.3,73.39,19.23,20.42,5,5.38C319.6,325.43,320.17,326.07,320.17,326.07Z" style="fill: rgb(38, 50, 56); transform-origin: 232.174px 329.665px;" id="elnmrsxz11bo" class="animable"></path><path d="M160,401.16a126,126,0,0,1,50.69-70.91l-6.45-7.79c-24.59,16.56-44.51,39.4-52.22,68,0,0,2.75,4.15,4.41,6.25S160,401.16,160,401.16Z" style="fill: rgb(113, 0, 78); transform-origin: 181.355px 361.81px;" id="el3wma66l0cno" class="animable"></path><g id="el3n7eipu5lb2"><ellipse cx="180.46" cy="183.52" rx="84.44" ry="79.44" style="fill: rgb(224, 224, 224); transform-origin: 180.46px 183.52px; transform: rotate(-12.37deg);" class="animable"></ellipse></g><path d="M262.94,165.43s-.12-.43-.34-1.28l-.41-1.59c-.15-.63-.34-1.36-.61-2.18s-.54-1.73-.85-2.74-.77-2.08-1.2-3.25-1-2.4-1.57-3.73-1.3-2.68-2-4.13a78.79,78.79,0,0,0-5.74-9.17,80.5,80.5,0,0,0-8.42-9.73,81.53,81.53,0,0,0-26.07-17.1,86.75,86.75,0,0,0-37.17-6.37,88.89,88.89,0,0,0-20.84,3.49,92.61,92.61,0,0,0-10.42,3.71,93.69,93.69,0,0,0-10.12,5.17A82.22,82.22,0,0,0,100,162.94a75,75,0,0,0,8.24,62.74,77.11,77.11,0,0,0,7.75,10.22,82.31,82.31,0,0,0,53.22,26.59,92.47,92.47,0,0,0,11.36.46,90.61,90.61,0,0,0,11-1,88.54,88.54,0,0,0,20.38-5.56A86.69,86.69,0,0,0,243,235.06a79.91,79.91,0,0,0,20.09-38.8,80.55,80.55,0,0,0,1.38-10.73c.05-1.62.12-3.16.1-4.6s0-2.79-.13-4-.19-2.4-.27-3.46-.26-2-.38-2.84-.22-1.6-.35-2.24-.21-1.17-.29-1.61c-.16-.86-.23-1.31-.23-1.31s.11.44.28,1.3c.09.43.19,1,.32,1.61s.27,1.38.38,2.23.25,1.8.4,2.85.19,2.21.3,3.46.1,2.6.15,4.05,0,3-.08,4.61a79,79,0,0,1-1.34,10.77,80,80,0,0,1-3.54,12.41,81.8,81.8,0,0,1-16.52,26.59,86.75,86.75,0,0,1-31.21,21.49,88.7,88.7,0,0,1-20.47,5.61,91.41,91.41,0,0,1-11.08,1,93.44,93.44,0,0,1-11.42-.46,85,85,0,0,1-44.3-18,82.59,82.59,0,0,1-9.25-8.72A75.49,75.49,0,0,1,96.67,175.4a77.22,77.22,0,0,1,2.79-12.61,82.54,82.54,0,0,1,37.44-46.67,92.91,92.91,0,0,1,10.18-5.19,91.64,91.64,0,0,1,10.48-3.72,88.72,88.72,0,0,1,20.95-3.48,86.93,86.93,0,0,1,37.33,6.46,79.83,79.83,0,0,1,34.55,27,79.65,79.65,0,0,1,5.72,9.22c.72,1.46,1.42,2.84,2,4.16s1.12,2.56,1.55,3.74.82,2.27,1.18,3.27.58,1.93.83,2.75.45,1.55.59,2.19.28,1.16.38,1.59C262.85,165,262.94,165.43,262.94,165.43Z" style="fill: rgb(38, 50, 56); transform-origin: 180.376px 183.55px;" id="el3xqrt6z9e6l" class="animable"></path><path d="M260.35,228.05l.69-11.42c.72-20.95-5.91-42.71-19.24-55.54s-42.57-14.89-71.6-1.17-38.46,19.42-43.67,37.24,5.8,40.17,5.8,40.17l6.52,16.45s16.05,7.86,26.15,7.94S260.35,228.05,260.35,228.05Z" style="fill: rgb(113, 0, 78); transform-origin: 193.112px 206.116px;" id="elhfcdwgwkxxs" class="animable"></path><g id="ela9gwanesyih"><g style="opacity: 0.4; transform-origin: 194.206px 188.308px;" class="animable"><path d="M206.75,186.65h0a17,17,0,0,0-5-.53l-17.43-31.67a107.74,107.74,0,0,0-16.69,6.68s11.56,9.23,22.48,29.64a17.33,17.33,0,0,0-2.9,3.32,18.15,18.15,0,0,0,20.67,27.23,18.88,18.88,0,0,0,12.87-16.54A17.41,17.41,0,0,0,206.75,186.65Z" style="fill: rgb(255, 255, 255); transform-origin: 194.206px 188.308px;" id="el0shboa7po1tg" class="animable"></path></g></g><path d="M183.12,193.57A16.23,16.23,0,1,1,162.24,184,16.23,16.23,0,0,1,183.12,193.57Z" style="fill: rgb(255, 255, 255); transform-origin: 167.902px 199.21px;" id="el549n150reg9" class="animable"></path><path d="M183.12,193.57a28.3,28.3,0,0,0-2-3.47,16.11,16.11,0,0,0-8.62-6.17,15.88,15.88,0,0,0-7.36-.43,16,16,0,0,0-7.6,3.61,14.78,14.78,0,0,0-3,3.45,14.93,14.93,0,0,0-2,4.35,15.88,15.88,0,0,0,6.59,17.66,16.08,16.08,0,0,0,8.88,2.62,16.1,16.1,0,0,0,15.86-17.72,28.33,28.33,0,0,0-.8-3.9,1.47,1.47,0,0,1,.11.24c.07.2.15.44.26.73a7.9,7.9,0,0,1,.35,1.21,11.4,11.4,0,0,1,.3,1.7,15.23,15.23,0,0,1-.11,4.72,16.38,16.38,0,0,1-7.61,11.17,16.35,16.35,0,0,1-8.35,2.39,15.22,15.22,0,0,1-4.7-.63,15.52,15.52,0,0,1-4.51-2,16.4,16.4,0,0,1-6.82-18.3,15.34,15.34,0,0,1,2.05-4.5,15.58,15.58,0,0,1,3.14-3.56A16.56,16.56,0,0,1,165.1,183a16.26,16.26,0,0,1,7.56.51,16,16,0,0,1,5.51,2.95,15,15,0,0,1,3.18,3.49,10.76,10.76,0,0,1,.88,1.48,7.82,7.82,0,0,1,.53,1.15c.11.29.21.52.28.72A1,1,0,0,1,183.12,193.57Z" style="fill: rgb(38, 50, 56); transform-origin: 167.785px 199.253px;" id="eloqv6wz0tdi" class="animable"></path><path d="M168.43,203.46c-3.38-4.9-3.86-10.42-1.08-12.34s7.77.5,11.14,5.39,3.87,10.42,1.09,12.34S171.81,208.35,168.43,203.46Z" style="fill: rgb(38, 50, 56); transform-origin: 173.461px 199.985px;" id="elmvr7qml5lmq" class="animable"></path><path d="M129.12,198.05s-9.66-41.83-5.25-48.64S163.49,166,163.49,166l-26.07,26Z" style="fill: rgb(113, 0, 78); transform-origin: 143.103px 173.109px;" id="eljf9v960d76h" class="animable"></path><path d="M188.54,156.2s5-21.51,6.51-24.81,3.69-14.27,10.41-13.07,22.95,34.74,22.95,34.74l-25.95,4.21Z" style="fill: rgb(113, 0, 78); transform-origin: 208.475px 137.749px;" id="elf7qni1mtqld" class="animable"></path><path d="M173.47,201c.3.54-1.17,1.92-3.28,3.08s-4.06,1.65-4.36,1.11,1.17-1.92,3.28-3.08S173.17,200.4,173.47,201Z" style="fill: rgb(255, 255, 255); transform-origin: 169.65px 203.082px;" id="elw9zapan9trd" class="animable"></path><path d="M201.12,196.13a3.75,3.75,0,0,1,.7,1,13.54,13.54,0,0,1,1.22,3.17,13.23,13.23,0,0,1,.25,5,11.84,11.84,0,0,1-2.51,5.66,10.47,10.47,0,0,1-5.11,3.49,9.88,9.88,0,0,1-5.06.16,8.73,8.73,0,0,1-3.12-1.38,3.58,3.58,0,0,1-.92-.84,11.66,11.66,0,0,0,4.13,1.82,10.06,10.06,0,0,0,4.81-.27,10.32,10.32,0,0,0,4.81-3.35,11.56,11.56,0,0,0,2.43-5.37,13.22,13.22,0,0,0-.12-4.87A23.13,23.13,0,0,0,201.12,196.13Z" style="fill: rgb(38, 50, 56); transform-origin: 194.995px 205.497px;" id="el50uxp7axqce" class="animable"></path><path d="M220.53,196.05a3.91,3.91,0,0,1-.13,1.14,20,20,0,0,1-.8,3.06,8.77,8.77,0,0,1-2.62,3.92,7.69,7.69,0,0,1-5.56,1.53,10,10,0,0,1-5.35-2.18,14.8,14.8,0,0,1-3.14-3.5,20.6,20.6,0,0,1-1.51-2.77,3.56,3.56,0,0,1-.39-1.09c.1,0,.74,1.47,2.25,3.62a14.94,14.94,0,0,0,3.13,3.31,9.67,9.67,0,0,0,5.06,2,7.25,7.25,0,0,0,5.17-1.36,8.62,8.62,0,0,0,2.57-3.65C220.14,197.66,220.42,196,220.53,196.05Z" style="fill: rgb(38, 50, 56); transform-origin: 210.781px 200.9px;" id="elfdhlzga06d8" class="animable"></path><path d="M212.53,208.08a3.59,3.59,0,0,1-.59,1.87,8.12,8.12,0,0,1-8,4.26,3.55,3.55,0,0,1-1.88-.56c0-.09.74.11,1.91.14a8.64,8.64,0,0,0,7.61-4C212.21,208.75,212.44,208.05,212.53,208.08Z" style="fill: rgb(38, 50, 56); transform-origin: 207.295px 211.166px;" id="elmc8gqhu3ckj" class="animable"></path><g id="eli68o0fesrgh"><g style="opacity: 0.3; transform-origin: 142.766px 170.787px;" class="animable"><path d="M137.72,188.63s-12.62-33.8-9.49-35.56,29.57,15.5,29.57,15.5S149.1,187.58,137.72,188.63Z" id="elbjec26111u6" class="animable" style="transform-origin: 142.766px 170.787px;"></path></g></g><path d="M159.25,167.73c-4.79.57-10.2,3.52-14.15,6.3a9,9,0,0,1,5.54,1c-6.22,5-12.68,10.41-15.68,17.83l5.66-.77,18.67-10.38Z" style="fill: rgb(113, 0, 78); transform-origin: 147.125px 180.295px;" id="elywvb8i3utp" class="animable"></path><g id="el842t1yc3twx"><g style="opacity: 0.3; transform-origin: 206.795px 139.736px;" class="animable"><path d="M192.8,156.11s9.34-34.85,12.91-34.47,15.08,29.78,15.08,29.78S202.68,161.85,192.8,156.11Z" id="elcwdkwwht5nc" class="animable" style="transform-origin: 206.795px 139.736px;"></path></g></g><path d="M222.46,151.58c-4.23-2.32-10.35-3.06-15.17-3.08a9,9,0,0,1,3.91,4c-8,.5-16.37,1.12-23.12,5.42l5.06,2.66L214.37,163Z" style="fill: rgb(113, 0, 78); transform-origin: 205.27px 155.75px;" id="ellck70p8jdnf" class="animable"></path><path d="M236.66,171a16.23,16.23,0,1,1-20.88-9.53A16.22,16.22,0,0,1,236.66,171Z" style="fill: rgb(255, 255, 255); transform-origin: 221.455px 176.674px;" id="el9o5z13wcpqp" class="animable"></path><path d="M236.66,171a27.17,27.17,0,0,0-1.95-3.47,16.15,16.15,0,0,0-8.62-6.17,15.89,15.89,0,0,0-7.36-.43,16.07,16.07,0,0,0-7.61,3.61,16.07,16.07,0,0,0-5,7.8A15.86,15.86,0,0,0,212.73,190a15,15,0,0,0,4.34,2,15.13,15.13,0,0,0,4.54.63,16.08,16.08,0,0,0,15.85-17.72,26.14,26.14,0,0,0-.8-3.9.86.86,0,0,1,.11.24l.26.73a6.91,6.91,0,0,1,.35,1.21,11.32,11.32,0,0,1,.31,1.7,15.23,15.23,0,0,1-.11,4.72A16.38,16.38,0,0,1,230,190.8a16.39,16.39,0,0,1-8.36,2.39,16.52,16.52,0,0,1-9.2-2.68,16.44,16.44,0,0,1-6.83-18.3,15.6,15.6,0,0,1,2-4.5,15.83,15.83,0,0,1,3.14-3.56,16.59,16.59,0,0,1,7.88-3.67,16.42,16.42,0,0,1,13.07,3.46,15.51,15.51,0,0,1,3.18,3.49,13.25,13.25,0,0,1,.88,1.48,7.37,7.37,0,0,1,.53,1.15l.28.72A.7.7,0,0,1,236.66,171Z" style="fill: rgb(38, 50, 56); transform-origin: 221.399px 176.723px;" id="elqpeolqnnnp" class="animable"></path><path d="M219.05,181.52c-3.07-5.1-3.22-10.64-.33-12.38s7.73,1,10.8,6.06,3.22,10.63.33,12.38S222.13,186.61,219.05,181.52Z" style="fill: rgb(38, 50, 56); transform-origin: 224.285px 178.363px;" id="elw7gju52dkrl" class="animable"></path><path d="M136.61,191.06s0-.15.1-.42.21-.67.44-1.16a22.27,22.27,0,0,1,2.24-4,39,39,0,0,1,11-10.24l.11-.08v.51a11,11,0,0,0-5.09-1.39l-.7,0,.51-.47a22.25,22.25,0,0,1,9.85-5.32,19.32,19.32,0,0,1,3.23-.52,4.37,4.37,0,0,1,1.17,0c0,.09-1.65.13-4.31.87a22.94,22.94,0,0,0-9.55,5.38l-.19-.49a11.56,11.56,0,0,1,5.37,1.44l.43.24-.42.27-.11.07a41.41,41.41,0,0,0-10.94,10A35.61,35.61,0,0,0,136.61,191.06Z" style="fill: rgb(38, 50, 56); transform-origin: 148.04px 179.495px;" id="el7vtnjrh5sg4" class="animable"></path><path d="M190.26,156.73s.12-.11.37-.26a11.76,11.76,0,0,1,1.11-.63,27.78,27.78,0,0,1,4.37-1.77,40.18,40.18,0,0,1,15.45-1.67l-.3.4-.12-.26a7.41,7.41,0,0,0-1.86-2.09c-.71-.61-1.47-1.15-2.17-1.73l-.55-.46.7,0A26.56,26.56,0,0,1,219,150a17.85,17.85,0,0,1,3.09,1.58,5.38,5.38,0,0,1,1,.76,32.42,32.42,0,0,0-4.22-2,27.56,27.56,0,0,0-11.56-1.55l.16-.5c.68.56,1.45,1.1,2.19,1.72a8,8,0,0,1,2,2.27c.05.1.1.21.14.31l.22.45-.52-.05a42.36,42.36,0,0,0-15.27,1.49,32.87,32.87,0,0,0-4.39,1.58A15.35,15.35,0,0,1,190.26,156.73Z" style="fill: rgb(38, 50, 56); transform-origin: 206.675px 152.454px;" id="el43p6uhsspje" class="animable"></path><g id="elsl03piw86mj"><g style="opacity: 0.4; transform-origin: 138.774px 223.985px;" class="animable"><path d="M130.81,233.79c6.38.23,12.19.4,17.73-2.17a5.24,5.24,0,0,0,3.44-5.2,9.57,9.57,0,0,0-3.54-6.51A12.51,12.51,0,0,0,143,217.7c-5.45-1.19-12-2.45-17.44-3.64C126.44,223.39,129.28,229.43,130.81,233.79Z" style="fill: rgb(255, 255, 255); transform-origin: 138.774px 223.985px;" id="elkoz1lph2on" class="animable"></path></g></g><g id="elztsy2n5flb8"><g style="opacity: 0.4; transform-origin: 252.477px 189.287px;" class="animable"><path d="M252.15,174.34c-1.85-2.05,1,5.91.16,8.55a35.38,35.38,0,0,1-3.77,7.34,19.3,19.3,0,0,0-3,7.63c-.27,2.47.6,5.33,2.86,6.33,1.85.82,4,.16,5.88-.58,2.25-.87,4.76-2.2,5.18-4.58C259.43,199,260.06,183.07,252.15,174.34Z" style="fill: rgb(255, 255, 255); transform-origin: 252.477px 189.287px;" id="elxb33n0fgsp" class="animable"></path></g></g><path d="M190.86,191.75a16.55,16.55,0,0,1,11-4.49c1.8-.16,2.91.89,2.49,2L201.89,196a1.38,1.38,0,0,1-1.6.87l-9.16-2C189.81,194.56,189.74,192.61,190.86,191.75Z" style="fill: rgb(38, 50, 56); transform-origin: 197.257px 192.074px;" id="elmt2cb81g7l" class="animable"></path><path d="M200.13,188.87c0,.17-1.95.71-4.22,1.83s-3.91,2.35-4,2.21a13.61,13.61,0,0,1,8.25-4Z" style="fill: rgb(255, 255, 255); transform-origin: 196.035px 190.895px;" id="elbzlypv2jojc" class="animable"></path><path d="M192.68,212.21c.09.11-9.53,8.33-21.5,18.36s-21.74,18.08-21.83,18,9.53-8.33,21.5-18.37S192.59,212.1,192.68,212.21Z" style="fill: rgb(38, 50, 56); transform-origin: 171.015px 230.39px;" id="elaui5r91jovl" class="animable"></path><path d="M129.49,243.32a3.12,3.12,0,0,1,.56-.47l1.65-1.26c1.44-1.1,3.56-2.63,6.21-4.47,5.31-3.7,12.82-8.55,21.42-13.38s16.68-8.68,22.6-11.28c3-1.3,5.37-2.3,7-3l1.94-.75a3.49,3.49,0,0,1,.69-.23,3.1,3.1,0,0,1-.65.33l-1.9.84c-1.66.71-4.05,1.77-7,3.11-5.88,2.68-13.9,6.59-22.49,11.4s-16.12,9.61-21.47,13.22c-2.67,1.8-4.83,3.29-6.3,4.33l-1.71,1.18A4.63,4.63,0,0,1,129.49,243.32Z" style="fill: rgb(38, 50, 56); transform-origin: 160.525px 225.9px;" id="el433ltov5urn" class="animable"></path><path d="M223.82,179.23c.29.54-1.17,1.92-3.28,3.08s-4.07,1.66-4.37,1.11,1.17-1.92,3.28-3.08S223.52,178.68,223.82,179.23Z" style="fill: rgb(255, 255, 255); transform-origin: 219.994px 181.325px;" id="elpu49d096qso" class="animable"></path><path d="M134.58,124.35c-57.11,50.78-19.16,100.88-19.16,100.88-6.19-40.27-3.86-65.17,21.68-88.58Z" style="fill: rgb(255, 255, 255); transform-origin: 120.081px 174.79px;" id="el9v2g74h05qm" class="animable"></path><path d="M143.26,133.49l-2.77-12.59s8.67-5.69,24.13-9.64L168,123.41S156.92,124.54,143.26,133.49Z" style="fill: rgb(255, 255, 255); transform-origin: 154.245px 122.375px;" id="elnokyihyfiwa" class="animable"></path><path d="M260.05,174.6a2.32,2.32,0,0,1-.44.31l-1.3.82c-1.13.7-2.79,1.68-4.85,2.86-4.14,2.37-9.94,5.49-16.49,8.63s-12.63,5.72-17.06,7.46c-2.21.87-4,1.55-5.27,2l-1.45.5a1.86,1.86,0,0,1-.52.14,1.83,1.83,0,0,1,.48-.24l1.41-.59,5.21-2.15c4.39-1.83,10.42-4.45,17-7.59s12.36-6.2,16.54-8.48l4.93-2.72,1.35-.73A1.79,1.79,0,0,1,260.05,174.6Z" style="fill: rgb(38, 50, 56); transform-origin: 236.36px 185.96px;" id="ela208vzb785i" class="animable"></path><path d="M264.08,178.56a2.46,2.46,0,0,1-.46.28l-1.34.74c-1.18.63-2.89,1.51-5,2.57-4.26,2.12-10.21,4.94-16.88,7.82s-12.8,5.27-17.27,6.91c-2.24.83-4.05,1.47-5.31,1.89l-1.46.48a2,2,0,0,1-.52.13,2.09,2.09,0,0,1,.48-.23l1.43-.57,5.25-2c4.43-1.73,10.53-4.18,17.19-7s12.63-5.64,16.93-7.67l5.09-2.42,1.39-.65A1.86,1.86,0,0,1,264.08,178.56Z" style="fill: rgb(38, 50, 56); transform-origin: 239.96px 188.97px;" id="el4l3da84t4z" class="animable"></path><g id="el46i1vyy2de6"><circle cx="265.76" cy="285.72" r="82.25" style="fill: rgb(113, 0, 78); transform-origin: 265.76px 285.72px; transform: rotate(-45deg);" class="animable"></circle></g><path d="M278.4,204.21a.75.75,0,0,1-.26,0l-.76-.08c-.66-.06-1.63-.23-2.89-.32a75.6,75.6,0,0,0-10.68-.29,85.18,85.18,0,0,0-33.92,8.62,78.65,78.65,0,0,0-16.17,10.64,81.45,81.45,0,0,0-17.09,20.16c-.68,1.07-1.12,1.94-1.46,2.51-.16.27-.29.48-.39.66a1.07,1.07,0,0,1-.15.21,1.35,1.35,0,0,1,.1-.24l.34-.68c.32-.58.73-1.48,1.39-2.56a72.85,72.85,0,0,1,6-8.91,78.37,78.37,0,0,1,11-11.52,83.08,83.08,0,0,1,7.5-5.68,79.45,79.45,0,0,1,8.75-5.06,83.71,83.71,0,0,1,34.14-8.52,70.14,70.14,0,0,1,10.71.46c1.26.12,2.23.32,2.89.42l.74.13Z" style="fill: rgb(38, 50, 56); transform-origin: 236.515px 224.715px;" id="eljdn4pdyiyf" class="animable"></path><g id="el91wgqubjjhe"><g style="opacity: 0.3; transform-origin: 286.363px 234.966px;" class="animable"><path d="M275.09,223.41c-2.51,4.34-1.26,10.06,1.7,14.11s7.33,6.78,11.6,9.42c2.05,1.27,4.46,2.59,6.76,1.83,2.57-.86,3.66-3.92,3.81-6.63A19.36,19.36,0,0,0,292,226.35c-4.6-3.79-12.78-8.32-17-2.94" id="elxuzu329fyli" class="animable" style="transform-origin: 286.363px 234.966px;"></path></g></g><g id="elmgtsx95cnxc"><g style="opacity: 0.3; transform-origin: 244.916px 227.428px;" class="animable"><path d="M250.37,223.15a6.76,6.76,0,0,0-8-1.65h0c-2.36.34-5.64,6.22-3.57,9.34a7.46,7.46,0,0,0,9.88,2.15A7,7,0,0,0,250.37,223.15Z" id="elbxf4xxyu23n" class="animable" style="transform-origin: 244.916px 227.428px;"></path></g></g><g id="elpi2wolpgtt"><g style="opacity: 0.3; transform-origin: 266.976px 303.835px;" class="animable"><path d="M284.62,366.37a82.26,82.26,0,0,0,64-90.24C345.9,270.84,337,258.05,329.74,251c-4.68-4.53-11.62-2.38-13.21.68-3.87,7.46,3.77,17.95-1.55,24.46-3.16,3.87-9.38,3.68-13.75,1.25s-7.53-6.52-11.17-9.95-8.38-6.39-13.33-5.68c-7.19,1-11.16,9.5-10.49,16.74s4.52,13.72,7.18,20.49,4,14.9,0,21c-4.3,6.51-13.59,8.2-21,5.72s-13.21-8.21-18.25-14.16a143.55,143.55,0,0,1-14.91-21.3c-1.58-2.76-3.12-5.83-2.59-9,.62-3.76,4-6.35,6.21-9.42,6-8.24,3.49-21-4.45-27.35-5.36-4.31-12.51-5.79-19.35-4.82a82.23,82.23,0,0,0,85.53,126.72Zm4.55-76.8c2.49-9,11.64,1,14.91,5,2.87,3.48,6.07,6.64,8.25,10.59,1.65,3,3.29,6.19,2.74,9.68a6.11,6.11,0,0,1-3.1,4.56c-2.71,1.38-5.29-.1-7.41-1.69a43.59,43.59,0,0,1-15.21-21.48A11.52,11.52,0,0,1,289.17,289.57Z" id="elc3fm8997vp" class="animable" style="transform-origin: 266.976px 303.835px;"></path></g></g><path d="M154.28,273.87c16.19-13.39,35.4-27,55.84-35.75a9.57,9.57,0,0,1,2.44-7.91c2-2,5.48-2.63,7.84-1s2.9,5.51.74,7.38c3-2,7.47-1.95,9.83.76s1.14,7.89-2.38,8.61a6.34,6.34,0,0,1,6.52,3.21,5.86,5.86,0,0,1-1.43,7,5.47,5.47,0,0,1-7.08-.33,5.37,5.37,0,1,1-8.28,5.77l-44,50.22" style="fill: rgb(245, 245, 245); transform-origin: 194.992px 270.056px;" id="el8heczfwu2sc" class="animable"></path><path d="M174.29,311.84a2.75,2.75,0,0,1,.2-.25c.14-.18.34-.41.6-.72l2.37-2.76,9-10.37,31.69-36.27.29-.34.12.43a5.4,5.4,0,0,0,7.67,3c2.79-1.69,3-6.49.22-8.49l.33-.38a5.18,5.18,0,0,0,5,1.19A5,5,0,0,0,235.3,253a5.41,5.41,0,0,0-1.44-5.15,6.16,6.16,0,0,0-5.22-1.69l-.1-.52a3.77,3.77,0,0,0,1.31-.56c2.63-1.84,2.8-6.36.24-8.27a6.75,6.75,0,0,0-4.4-1.42,8.35,8.35,0,0,0-4.41,1.35l-.31-.41a3.87,3.87,0,0,0,1.26-2.77,5,5,0,0,0-.8-3,4.39,4.39,0,0,0-2.41-1.82,6,6,0,0,0-3.05-.12,6.73,6.73,0,0,0-2.74,1.29,7.12,7.12,0,0,0-1.89,2.33,10.17,10.17,0,0,0-1,5.8l0,.18-.17.07a186.55,186.55,0,0,0-23.81,12.48c-6.88,4.22-12.69,8.29-17.42,11.74s-8.39,6.32-10.87,8.29l-2.84,2.26-.73.57-.26.19s.07-.08.23-.22l.71-.6c.63-.53,1.56-1.32,2.79-2.32,2.46-2,6.09-4.9,10.8-8.4s10.51-7.59,17.38-11.85A185.53,185.53,0,0,1,210,237.9l-.15.25a10.7,10.7,0,0,1,1-6.09,7.78,7.78,0,0,1,2-2.49,7.24,7.24,0,0,1,3-1.39,6.42,6.42,0,0,1,3.31.13,5,5,0,0,1,2.68,2,5.61,5.61,0,0,1,.88,3.29,4.38,4.38,0,0,1-1.44,3.13l-.31-.41a9,9,0,0,1,4.7-1.43,7.24,7.24,0,0,1,4.73,1.53,5.87,5.87,0,0,1-.28,9.1,4.24,4.24,0,0,1-1.49.64l-.1-.51a6.71,6.71,0,0,1,5.68,1.85,6.09,6.09,0,0,1,.21,8.29,5.22,5.22,0,0,1-2.53,1.55,5.67,5.67,0,0,1-5.49-1.34l.33-.38a5.84,5.84,0,0,1-.26,9.32,5.62,5.62,0,0,1-5,.29,5.55,5.55,0,0,1-3.37-3.56l.41.09-31.82,36.15-9.1,10.28-2.43,2.71-.63.69Z" style="fill: rgb(38, 50, 56); transform-origin: 195.093px 269.931px;" id="el49f0celkfk7" class="animable"></path><path d="M208.22,272.93a5.9,5.9,0,0,1-1.15-.53,14.4,14.4,0,0,1-1.29-.72c-.49-.31-1.06-.63-1.64-1.07a31.81,31.81,0,0,1-3.94-3.25,36.25,36.25,0,0,1-4-4.76,35.27,35.27,0,0,1-3.08-5.44,31.41,31.41,0,0,1-1.7-4.82c-.21-.69-.32-1.34-.44-1.91a13,13,0,0,1-.23-1.46,5.32,5.32,0,0,1-.1-1.25c.1,0,.31,1.77,1.12,4.52a36.42,36.42,0,0,0,1.78,4.72,39.62,39.62,0,0,0,3.07,5.34,38.5,38.5,0,0,0,4,4.72,34.12,34.12,0,0,0,3.81,3.29C206.66,272,208.27,272.84,208.22,272.93Z" style="fill: rgb(38, 50, 56); transform-origin: 199.434px 260.325px;" id="el3m6ojj7sz5g" class="animable"></path><path d="M229.27,245.87a30.9,30.9,0,0,0-3.1.7,26.47,26.47,0,0,0-2.81,1.5,5.72,5.72,0,0,1,5.91-2.2Z" style="fill: rgb(38, 50, 56); transform-origin: 226.315px 246.896px;" id="elrpbodb2xfja" class="animable"></path><path d="M180,305.38c-11.28-8.61-18.77-22.6-19.14-36.78l6.27-4.63c.37,14.18,7.13,26.62,18.41,35.23" style="fill: rgb(113, 0, 78); transform-origin: 173.2px 284.675px;" id="elx72h3qpjsri" class="animable"></path><path d="M209.49,368a28.75,28.75,0,0,1,31.61-29.42c9.75,1,18.44,7,24.77,14.43s10.63,16.4,14.87,25.23c4.09-12.44,10.95-24.08,20.53-33,4-3.67,10.2-7.05,14.11-1.1a11.3,11.3,0,0,1,1.77,5.85c.18,5.87-.72,11.11-3.19,18.95a324.45,324.45,0,0,1-20.53,49.18,8.36,8.36,0,0,1-6.21,4.42c-13.35,2-54.8,6.16-73.08-13.87" style="fill: rgb(245, 245, 245); transform-origin: 263.325px 381.374px;" id="el34rdh30xyqt" class="animable"></path><g style="clip-path: url(&quot;#freepik--clip-path-2--inject-17&quot;); transform-origin: 305.74px 381.695px;" id="elrsk3leg009" class="animable"><path d="M290.18,422.25c-1.87.5-3.75-1.19-4.2-3.08s.14-3.84.71-5.69q9.18-29.6,18.35-59.19c1-3.34,2.12-6.78,4.35-9.47s5.92-4.5,9.27-3.48,5.42,4.54,7,7.74l-7.25,58.22Z" style="fill: rgb(224, 224, 224); transform-origin: 305.74px 381.695px;" id="el109kkrxlxvv" class="animable"></path></g><path d="M310,345.49a6.1,6.1,0,0,1-.36.74c-.25.47-.63,1.15-1.08,2.06-.92,1.8-2.18,4.44-3.53,7.79s-2.77,7.42-4.2,12-2.91,9.61-4.51,14.9L288,410c-.52,1.74-1.06,3.29-1.36,4.68a9.92,9.92,0,0,0-.24,3.62,4.7,4.7,0,0,0,.83,2.1c.31.43.54.6.52.63a2.82,2.82,0,0,1-.6-.56,4.5,4.5,0,0,1-.95-2.14,10.15,10.15,0,0,1,.15-3.71c.28-1.43.8-3,1.3-4.72l8.09-27.11c1.6-5.29,3.1-10.33,4.55-14.9s2.92-8.63,4.32-12a80.24,80.24,0,0,1,3.69-7.75c.48-.89.89-1.56,1.17-2A4.59,4.59,0,0,1,310,345.49Z" style="fill: rgb(38, 50, 56); transform-origin: 298.048px 383.26px;" id="el21j4fwwunh9" class="animable"></path><path d="M299.41,407.05a26.38,26.38,0,0,1-5.28-.23,25.92,25.92,0,0,1-5.24-.76,27.84,27.84,0,0,1,5.28.24A27.28,27.28,0,0,1,299.41,407.05Z" style="fill: rgb(38, 50, 56); transform-origin: 294.15px 406.559px;" id="elfe0i3h9jtld" class="animable"></path><path d="M305.55,391a32.07,32.07,0,0,1-5.79-.2A31.72,31.72,0,0,1,294,390a32.8,32.8,0,0,1,5.8.21A33.41,33.41,0,0,1,305.55,391Z" style="fill: rgb(38, 50, 56); transform-origin: 299.775px 390.503px;" id="elr6feg5xps8m" class="animable"></path><path d="M311.81,375.09a37.36,37.36,0,0,1-6.29-.32,38.39,38.39,0,0,1-6.24-.84,37.36,37.36,0,0,1,6.29.32A38.39,38.39,0,0,1,311.81,375.09Z" style="fill: rgb(38, 50, 56); transform-origin: 305.545px 374.51px;" id="eloe0y11mayyl" class="animable"></path><path d="M316.36,359.79a17.54,17.54,0,0,1-6.11,0,17.92,17.92,0,0,1-5.94-1.49c.05-.14,2.67.59,6,1S316.35,359.65,316.36,359.79Z" style="fill: rgb(38, 50, 56); transform-origin: 310.335px 359.17px;" id="el094ifaash88" class="animable"></path><path d="M209.62,368a29.16,29.16,0,0,1,6.77-19.31A28.76,28.76,0,0,1,234,338.91c14.26-2.19,26.85,7,34.81,18,4.78,6.63,8.34,14,11.86,21.39.05.1.2.06.23,0a83.25,83.25,0,0,1,11.28-22.44,71.18,71.18,0,0,1,8.17-9.51c2.46-2.38,5.49-5,9.06-5.27,4.5-.37,7.21,4.13,7.6,8.11a38,38,0,0,1-.81,11c-1.66,8.38-4.8,16.55-7.86,24.5q-4.92,12.82-10.88,25.21-1.44,3-2.92,5.9c-1,1.94-1.88,3.9-3.7,5.2-2.07,1.47-4.64,1.61-7.07,1.91a149,149,0,0,1-31.66.8c-12.14-1.07-25.15-4-34.67-12.05a36.5,36.5,0,0,1-3.17-3.05c-.11-.12-.28.06-.17.18,6,6.55,14.34,10.4,22.84,12.63a105.8,105.8,0,0,0,27.29,3,165.69,165.69,0,0,0,21.35-1.52,11.42,11.42,0,0,0,5.38-1.72c2.21-1.56,3.2-4.1,4.38-6.44q4.54-9,8.52-18.38c2.61-6.09,5.05-12.26,7.27-18.51a119,119,0,0,0,5.45-18.36,44.85,44.85,0,0,0,.76-7.76,13.27,13.27,0,0,0-1.82-7.65,6.72,6.72,0,0,0-5.1-3.29,10.08,10.08,0,0,0-5.85,1.78,31.52,31.52,0,0,0-6,5.18,72.36,72.36,0,0,0-5.63,6.62,80.22,80.22,0,0,0-9.32,16.07c-.55,1.27-1.08,2.56-1.58,3.86-.24.65-.48,1.29-.71,1.94a9.68,9.68,0,0,1-.41,1.18c-.31.62-.25.29-.51-.25-1.45-3-2.91-6-4.47-9A80.22,80.22,0,0,0,265.18,352c-7.63-8.6-18.64-15-30.46-13.47A28.95,28.95,0,0,0,209.37,368a.13.13,0,0,0,.25,0Z" style="fill: rgb(38, 50, 56); transform-origin: 263.365px 381.373px;" id="elyen00t2xu9o" class="animable"></path><path d="M271.75,362.57a3.76,3.76,0,0,1-.56.45c-.36.28-.94.65-1.62,1.21A52.42,52.42,0,0,0,249.14,414a56.47,56.47,0,0,0,1.57,7.26c.23.86.47,1.5.59,2a5.5,5.5,0,0,1,.18.68,3.5,3.5,0,0,1-.28-.65c-.16-.44-.43-1.07-.68-1.92a47.36,47.36,0,0,1-1.74-7.27,51.32,51.32,0,0,1,14.93-45.19,48.43,48.43,0,0,1,5.74-4.81c.7-.53,1.3-.87,1.68-1.13A4.5,4.5,0,0,1,271.75,362.57Z" style="fill: rgb(38, 50, 56); transform-origin: 259.925px 393.255px;" id="elzimd05zlvt" class="animable"></path><path d="M205,373.34a5.68,5.68,0,0,1,0,1.18c0,.76,0,1.86,0,3.21a65,65,0,0,0,3.55,20.74c.44,1.28.82,2.31,1.09,3a4.59,4.59,0,0,1,.37,1.13,6.12,6.12,0,0,1-.55-1.05c-.34-.68-.77-1.7-1.25-3a55.71,55.71,0,0,1-3.58-20.86c0-1.36.1-2.46.19-3.22A4.75,4.75,0,0,1,205,373.34Z" style="fill: rgb(38, 50, 56); transform-origin: 207.314px 387.97px;" id="elw80673irzw" class="animable"></path><path d="M157.3,271.64c-5.56-2.34-13.43.87-14.28,3.13-4.13-4.62-2.6-11.45.73-14.6,1.33-1.25,4-2.1,5.72-2.73,3.78-1.39,6.47-1.09,10.49-.86a17.4,17.4,0,0,1,11,4.4" style="fill: rgb(38, 50, 56); transform-origin: 155.742px 265.577px;" id="elgsk6e17wgwf" class="animable"></path><path d="M174.43,311.45c-.67,6.56-4.66,12.47-9.87,16.51s-11.55,6.37-18,7.86a21.12,21.12,0,0,1-7.06.7,8.49,8.49,0,0,1-6.08-3.31,37.93,37.93,0,0,0,.39,20.11c13.58.58,27.6-3.82,37.42-13.22s17.52-27.71,14.24-40.9" style="fill: rgb(38, 50, 56); transform-origin: 159.244px 326.285px;" id="elqlu2qd4xtn" class="animable"></path><path d="M317.9,369.72c11.3,1,22.73-3,31.81-9.81s16-16.24,21-26.39c5.32-10.64,8.82-22.74,6.61-34.43-2.06-10.84-8.73-20.12-13.77-29.93-6.43-12.52-10.34-27.22-6.34-40.71s17.95-24.6,31.71-21.67c11.25,2.4,18.93,12.73,24.26,22.92,11.88,22.69,17.54,48.91,14.18,74.31s-16.05,49.78-36.13,65.69-47.55,22.69-72.34,16.22" style="fill: rgb(245, 245, 245); transform-origin: 373.109px 297.33px;" id="elfa43uiqx63" class="animable"></path><path d="M318.92,385.92l1.23.25,3.59.78a80.58,80.58,0,0,0,36.17-1.69l1.59-.42,1.6-.51c1.07-.36,2.17-.68,3.26-1.07,2.17-.84,4.43-1.66,6.67-2.72a84.25,84.25,0,0,0,13.61-7.67,92.51,92.51,0,0,0,24.68-25.72,105.3,105.3,0,0,0,15-38,110.8,110.8,0,0,0,1.71-22.17c0-3.79-.37-7.62-.77-11.47s-1.09-7.71-1.94-11.56a129.74,129.74,0,0,0-7.17-23c-3.18-7.48-6.73-15.05-11.82-21.68a42.58,42.58,0,0,0-4.13-4.66,31.29,31.29,0,0,0-7.42-5.47A24.71,24.71,0,0,0,392,208a25.07,25.07,0,0,0-2.92-.87c-1-.17-2-.34-3-.43a24.16,24.16,0,0,0-11.69,2.23,30.28,30.28,0,0,0-9.51,7,32.85,32.85,0,0,0-6.32,9.73A35.48,35.48,0,0,0,356,236.68a54.68,54.68,0,0,0,3.25,21.82,81.66,81.66,0,0,0,4.19,9.87c1.58,3.16,3.32,6.18,5,9.19,3.37,6,6.61,11.93,8.32,18.22a42.09,42.09,0,0,1,.74,18.62,67.37,67.37,0,0,1-5.3,16.42,80.33,80.33,0,0,1-16.76,24.35,57,57,0,0,1-9.58,7.5,53.34,53.34,0,0,1-9.2,4.49,44.37,44.37,0,0,1-13.85,2.74,35.14,35.14,0,0,1-3.68-.07c-.83-.06-1.25-.11-1.25-.11s.42,0,1.25.06,2.06.07,3.68,0A44.44,44.44,0,0,0,336.61,367a53.89,53.89,0,0,0,18.65-12,80.39,80.39,0,0,0,16.63-24.29,66.66,66.66,0,0,0,5.23-16.34,41.58,41.58,0,0,0-.76-18.44c-1.7-6.22-4.93-12.13-8.3-18.11-1.69-3-3.44-6-5-9.2a83.51,83.51,0,0,1-4.23-9.92,55.22,55.22,0,0,1-3.29-22,36.41,36.41,0,0,1,2.58-11.27,33.54,33.54,0,0,1,6.42-9.88,30.88,30.88,0,0,1,9.66-7.08,24.81,24.81,0,0,1,11.95-2.28c1,.09,2.05.27,3.07.45a24.19,24.19,0,0,1,3,.88,27.76,27.76,0,0,1,2.87,1.22c.9.52,1.83,1,2.69,1.6a32.34,32.34,0,0,1,4.86,4,44.53,44.53,0,0,1,4.17,4.72,73.17,73.17,0,0,1,6.68,10.61c1.87,3.7,3.69,7.4,5.21,11.2a130.62,130.62,0,0,1,7.19,23c.85,3.87,1.44,7.76,1.94,11.61s.73,7.71.77,11.52a111,111,0,0,1-1.74,22.26,105.48,105.48,0,0,1-15.13,38.2,92.79,92.79,0,0,1-24.83,25.78,84.55,84.55,0,0,1-13.69,7.67c-2.24,1.06-4.51,1.88-6.69,2.71-1.1.39-2.21.71-3.28,1.06l-1.61.51-1.6.42a83.51,83.51,0,0,1-22.17,2.91,82.5,82.5,0,0,1-14.09-1.4l-3.58-.83Z" style="fill: rgb(38, 50, 56); transform-origin: 373.254px 297.334px;" id="el5y5pmzkbv6" class="animable"></path><path d="M384.68,375a1.49,1.49,0,0,1-.39.13c-.26.06-.64.19-1.14.27a21.63,21.63,0,0,1-4.3.38A23,23,0,0,1,357.13,360a20.64,20.64,0,0,1-1-4.21,11.19,11.19,0,0,1-.1-1.17,1.21,1.21,0,0,1,0-.41,35.68,35.68,0,0,0,1.41,5.67,23.32,23.32,0,0,0,21.38,15.52A35.52,35.52,0,0,0,384.68,375Z" style="fill: rgb(38, 50, 56); transform-origin: 370.346px 364.996px;" id="elekdrbwb2d6b" class="animable"></path><path d="M422,325.83s-.13.11-.41.29-.7.43-1.26.72a34.25,34.25,0,0,1-4.87,2.12,37.1,37.1,0,0,1-33.56-4.61,32.5,32.5,0,0,1-4.11-3.36c-.47-.42-.79-.79-1-1s-.33-.37-.32-.39a17.73,17.73,0,0,1,1.47,1.27,40,40,0,0,0,4.19,3.21,38,38,0,0,0,33.24,4.56,39.89,39.89,0,0,0,4.89-1.95A19,19,0,0,1,422,325.83Z" style="fill: rgb(38, 50, 56); transform-origin: 399.235px 325.327px;" id="elp0qi88l0079" class="animable"></path><path d="M426.31,270.52a2.71,2.71,0,0,1-.36.48c-.26.3-.61.76-1.13,1.3a45,45,0,0,1-4.58,4.38,49.79,49.79,0,0,1-39.13,11.14,44.76,44.76,0,0,1-6.2-1.31c-.72-.19-1.27-.39-1.64-.51a2.91,2.91,0,0,1-.56-.22,2.27,2.27,0,0,1,.59.12c.38.08.93.25,1.66.42a55.1,55.1,0,0,0,6.19,1.14A51.25,51.25,0,0,0,420,276.4a55.63,55.63,0,0,0,4.67-4.24c.53-.52.91-1,1.19-1.23A2.25,2.25,0,0,1,426.31,270.52Z" style="fill: rgb(38, 50, 56); transform-origin: 399.51px 279.426px;" id="el7a7yvj3t2vd" class="animable"></path><path d="M408.65,222.54a2,2,0,0,1-.32.51c-.23.32-.54.81-1,1.39a35.25,35.25,0,0,1-4.38,4.58,49.44,49.44,0,0,1-18.34,9.78,101.3,101.3,0,0,1-20.55,3.54c-2.66.23-4.82.36-6.31.44l-1.71.08a3.06,3.06,0,0,1-.6,0,2.57,2.57,0,0,1,.59-.1l1.71-.18L364,242a110.57,110.57,0,0,0,20.43-3.68,51,51,0,0,0,18.25-9.56,38.57,38.57,0,0,0,4.46-4.43C408.12,223.17,408.61,222.51,408.65,222.54Z" style="fill: rgb(38, 50, 56); transform-origin: 382.045px 232.707px;" id="elrr4nwttieqd" class="animable"></path></g><defs>     <filter id="active" height="200%">         <feMorphology in="SourceAlpha" result="DILATED" operator="dilate" radius="2"></feMorphology>                <feFlood flood-color="#32DFEC" flood-opacity="1" result="PINK"></feFlood>        <feComposite in="PINK" in2="DILATED" operator="in" result="OUTLINE"></feComposite>        <feMerge>            <feMergeNode in="OUTLINE"></feMergeNode>            <feMergeNode in="SourceGraphic"></feMergeNode>        </feMerge>    </filter>    <filter id="hover" height="200%">        <feMorphology in="SourceAlpha" result="DILATED" operator="dilate" radius="2"></feMorphology>                <feFlood flood-color="#ff0000" flood-opacity="0.5" result="PINK"></feFlood>        <feComposite in="PINK" in2="DILATED" operator="in" result="OUTLINE"></feComposite>        <feMerge>            <feMergeNode in="OUTLINE"></feMergeNode>            <feMergeNode in="SourceGraphic"></feMergeNode>        </feMerge>            <feColorMatrix type="matrix" values="0   0   0   0   0                0   1   0   0   0                0   0   0   0   0                0   0   0   1   0 "></feColorMatrix>    </filter></defs><defs><clipPath id="freepik--clip-path--inject-17"><path d="M265.53,325.79A28.73,28.73,0,0,1,288.12,289c9.65-1.66,19.62,1.76,27.72,7.27s14.64,13,21.08,20.34c.61-13.08,4.1-26.14,11-37.3,2.82-4.59,7.93-9.51,13.29-4.82a11.28,11.28,0,0,1,3.28,5.16c1.74,5.6,2.28,10.89,2,19.11a323.82,323.82,0,0,1-6.62,52.88,8.36,8.36,0,0,1-4.79,5.92c-12.35,5.46-51.16,20.6-74.13,6.2" style="fill:none"></path></clipPath><clipPath id="freepik--clip-path-2--inject-17"><path d="M209.49,368a28.75,28.75,0,0,1,31.61-29.42c9.75,1,18.44,7,24.77,14.43s10.63,16.4,14.87,25.23c4.09-12.44,10.95-24.08,20.53-33,4-3.67,10.2-7.05,14.11-1.1a11.3,11.3,0,0,1,1.77,5.85c.18,5.87-.72,11.11-3.19,18.95a324.45,324.45,0,0,1-20.53,49.18,8.36,8.36,0,0,1-6.21,4.42c-13.35,2-54.8,6.16-73.08-13.87" style="fill:none"></path></clipPath></defs></svg>